<?xml version="1.0" encoding="utf-8"?>
<!-- Generator: Adobe Illustrator 15.1.0, SVG Export Plug-In . SVG Version: 6.00 Build 0)  -->
<!DOCTYPE svg PUBLIC "-//W3C//DTD SVG 1.1//EN" "http://www.w3.org/Graphics/SVG/1.1/DTD/svg11.dtd">
<svg version="1.1" id="Layer_1" xmlns="http://www.w3.org/2000/svg" xmlns:xlink="http://www.w3.org/1999/xlink" x="0px" y="0px"
	 width="595.279px" height="117px" viewBox="0 361.445 595.279 117" enable-background="new 0 361.445 595.279 117"
	 xml:space="preserve">
<g>
	<g>
		<g>
			<g>
				<g>
					<g>
						<g>
							<g>
								<path fill="#750809" d="M7.879,432.59v-8.672h1.793v8.672H7.879z"/>
							</g>
							<g>
								<path fill="#750809" d="M23.336,432.484v-6.957h-2.253v-1.416h6.034v1.416H24.87v6.957H23.336z"/>
							</g>
							<g>
								<path fill="#750809" d="M37.448,429.452l1.488-0.162c0.09,0.554,0.271,0.96,0.544,1.215
									c0.275,0.261,0.646,0.389,1.111,0.389c0.49,0,0.866-0.114,1.115-0.342c0.248-0.232,0.376-0.504,0.376-0.812
									c0-0.195-0.053-0.366-0.162-0.503c-0.103-0.141-0.284-0.259-0.55-0.363c-0.18-0.068-0.59-0.188-1.227-0.363
									c-0.82-0.224-1.398-0.504-1.729-0.83c-0.467-0.46-0.699-1.021-0.699-1.684c0-0.429,0.108-0.826,0.326-1.196
									c0.222-0.373,0.537-0.654,0.95-0.849c0.41-0.192,0.911-0.292,1.495-0.292c0.95,0,1.668,0.229,2.149,0.692
									c0.48,0.46,0.735,1.075,0.759,1.847l-1.532,0.074c-0.065-0.43-0.208-0.739-0.423-0.93c-0.214-0.187-0.537-0.283-0.969-0.283
									c-0.444,0-0.797,0.101-1.044,0.303c-0.162,0.134-0.242,0.308-0.242,0.521c0,0.199,0.077,0.367,0.229,0.507
									c0.192,0.178,0.662,0.366,1.407,0.561c0.746,0.195,1.299,0.396,1.656,0.603c0.356,0.208,0.637,0.49,0.836,0.852
									c0.202,0.36,0.305,0.805,0.305,1.333c0,0.48-0.125,0.933-0.364,1.352c-0.241,0.42-0.584,0.73-1.023,0.934
									c-0.441,0.205-0.995,0.311-1.65,0.311c-0.963,0-1.696-0.245-2.212-0.739C37.852,431.102,37.544,430.387,37.448,429.452z"/>
							</g>
						</g>
						<g>
							<g>
								<path fill="#A01E21" d="M7.879,432.59v-8.672h1.793v8.672H7.879z"/>
							</g>
							<g>
								<path fill="#A01E21" d="M23.336,432.484v-6.957h-2.253v-1.416h6.034v1.416H24.87v6.957H23.336z"/>
							</g>
							<g>
								<path fill="#981B1E" d="M37.448,429.452l1.488-0.162c0.09,0.554,0.271,0.96,0.544,1.215
									c0.275,0.261,0.646,0.389,1.111,0.389c0.49,0,0.866-0.114,1.115-0.342c0.248-0.232,0.376-0.504,0.376-0.812
									c0-0.195-0.053-0.366-0.162-0.503c-0.103-0.141-0.284-0.259-0.55-0.363c-0.18-0.068-0.59-0.188-1.227-0.363
									c-0.82-0.224-1.398-0.504-1.729-0.83c-0.467-0.46-0.699-1.021-0.699-1.684c0-0.429,0.108-0.826,0.326-1.196
									c0.222-0.373,0.537-0.654,0.95-0.849c0.41-0.192,0.911-0.292,1.495-0.292c0.95,0,1.668,0.229,2.149,0.692
									c0.48,0.46,0.735,1.075,0.759,1.847l-1.532,0.074c-0.065-0.43-0.208-0.739-0.423-0.93c-0.214-0.187-0.537-0.283-0.969-0.283
									c-0.444,0-0.797,0.101-1.044,0.303c-0.162,0.134-0.242,0.308-0.242,0.521c0,0.199,0.077,0.367,0.229,0.507
									c0.192,0.178,0.662,0.366,1.407,0.561c0.746,0.195,1.299,0.396,1.656,0.603c0.356,0.208,0.637,0.49,0.836,0.852
									c0.202,0.36,0.305,0.805,0.305,1.333c0,0.48-0.125,0.933-0.364,1.352c-0.241,0.42-0.584,0.73-1.023,0.934
									c-0.441,0.205-0.995,0.311-1.65,0.311c-0.963,0-1.696-0.245-2.212-0.739C37.852,431.102,37.544,430.387,37.448,429.452z"/>
							</g>
						</g>
					</g>
					<g>
						<path fill="#2D7DC1" d="M43.621,389.469H6.18c0,0,31.121,0.951,37.438,19.473v-19.473H43.621z"/>
						<g>
							<polygon fill="#FFFFFF" points="40.487,398.028 40.85,399.106 42.024,399.106 41.073,399.771 41.437,400.844 40.487,400.182 
								39.532,400.844 39.896,399.771 38.948,399.106 40.119,399.106 							"/>
							<polygon fill="#FFFFFF" points="40.487,394.185 40.85,395.26 42.024,395.26 41.073,395.922 41.437,396.994 40.487,396.332 
								39.532,396.994 39.896,395.922 38.948,395.26 40.119,395.26 							"/>
							<polygon fill="#FFFFFF" points="40.487,390.386 40.85,391.458 42.024,391.458 41.073,392.122 41.437,393.197 40.487,392.532 
								39.532,393.197 39.896,392.122 38.948,391.458 40.119,391.458 							"/>
							<polygon fill="#FFFFFF" points="35.036,390.386 35.404,391.458 36.577,391.458 35.63,392.122 35.99,393.197 35.036,392.532 
								34.089,393.197 34.452,392.122 33.498,391.458 34.676,391.458 							"/>
							<polygon fill="#FFFFFF" points="29.593,390.386 29.957,391.458 31.134,391.458 30.177,392.122 30.544,393.197 
								29.593,392.532 28.64,393.197 29.009,392.122 28.049,391.458 29.233,391.458 							"/>
						</g>
					</g>
					<g>
						<g>
							<g>
								<path fill="#1E448C" d="M8.131,420.069l0.245-1.112l3.237,0.779c0.513,0.124,0.849,0.188,1.01,0.198
									c0.255,0.013,0.477-0.057,0.665-0.198c0.188-0.146,0.316-0.373,0.382-0.682c0.071-0.315,0.054-0.57-0.05-0.764
									c-0.104-0.196-0.255-0.336-0.45-0.413c-0.194-0.081-0.53-0.181-1.004-0.296l-3.309-0.792l0.249-1.112l3.141,0.755
									c0.718,0.175,1.218,0.323,1.501,0.457c0.279,0.132,0.51,0.303,0.674,0.514c0.168,0.211,0.283,0.466,0.343,0.765
									c0.06,0.298,0.044,0.668-0.054,1.104c-0.118,0.521-0.272,0.906-0.466,1.146c-0.191,0.242-0.41,0.413-0.659,0.521
									c-0.245,0.105-0.486,0.154-0.729,0.151c-0.36-0.009-0.873-0.096-1.541-0.258L8.131,420.069z"/>
							</g>
							<g>
								<path fill="#1E448C" d="M15.957,416.406l-5.688-2.388l0.399-1.024l4.637-0.553l-3.801-1.595l0.386-0.984l5.688,2.39
									l-0.414,1.061l-4.536,0.56l3.71,1.556L15.957,416.406z"/>
							</g>
							<g>
								<path fill="#1E448C" d="M18.228,411.423l-4.999-2.561l0.484-1.025l5.002,2.562L18.228,411.423z"/>
							</g>
							<g>
								<path fill="#1E448C" d="M20.083,408.859l-5.231-1.561l0.487-0.808l3.847,1.194l-2.74-3.031l0.476-0.792l3.643,4.196
									L20.083,408.859z"/>
							</g>
							<g>
								<path fill="#1E448C" d="M21.997,406.436l-3.2-3.172l1.944-2.108l0.541,0.537l-1.417,1.534l0.708,0.702l1.317-1.426
									l0.538,0.534l-1.317,1.429l0.87,0.864l1.466-1.588l0.538,0.534L21.997,406.436z"/>
							</g>
							<g>
								<path fill="#1E448C" d="M24.446,403.748l-2.569-2.957l1.04-0.973c0.263-0.242,0.477-0.396,0.642-0.454
									c0.164-0.057,0.342-0.054,0.53,0.019c0.189,0.068,0.36,0.193,0.51,0.367c0.195,0.224,0.299,0.46,0.313,0.702
									c0.02,0.245-0.064,0.487-0.249,0.727c0.171-0.023,0.333-0.023,0.481,0c0.148,0.025,0.383,0.101,0.698,0.218l0.8,0.296
									l-0.592,0.553l-0.919-0.308c-0.325-0.111-0.537-0.175-0.638-0.192c-0.099-0.017-0.183-0.009-0.254,0.019
									c-0.072,0.025-0.168,0.095-0.277,0.199l-0.103,0.097l1.072,1.233L24.446,403.748z M23.457,401.583l0.366-0.342
									c0.239-0.222,0.376-0.373,0.413-0.45c0.038-0.078,0.047-0.165,0.031-0.255c-0.02-0.091-0.065-0.178-0.141-0.269
									c-0.087-0.1-0.18-0.157-0.275-0.18c-0.098-0.02-0.192,0-0.289,0.056c-0.047,0.031-0.168,0.144-0.366,0.329l-0.389,0.357
									L23.457,401.583z"/>
							</g>
							<g>
								<path fill="#1E448C" d="M26.803,400.623l0.383-0.457c0.188,0.165,0.362,0.258,0.519,0.271
									c0.155,0.017,0.302-0.04,0.436-0.168c0.144-0.127,0.215-0.268,0.218-0.416c0.003-0.146-0.04-0.272-0.134-0.379
									c-0.06-0.071-0.124-0.111-0.195-0.131c-0.071-0.021-0.158-0.013-0.268,0.024c-0.068,0.024-0.228,0.094-0.464,0.205
									c-0.305,0.144-0.55,0.205-0.744,0.181c-0.271-0.031-0.508-0.161-0.706-0.389c-0.124-0.146-0.211-0.312-0.262-0.5
									c-0.047-0.185-0.037-0.366,0.021-0.544c0.063-0.181,0.178-0.349,0.346-0.503c0.273-0.259,0.55-0.37,0.823-0.343
									c0.272,0.028,0.531,0.171,0.768,0.427l-0.42,0.44c-0.146-0.128-0.278-0.199-0.396-0.205
									c-0.118-0.007-0.239,0.046-0.363,0.164c-0.128,0.121-0.199,0.249-0.212,0.386c-0.009,0.091,0.019,0.172,0.084,0.245
									c0.06,0.065,0.131,0.104,0.218,0.112c0.108,0.009,0.301-0.054,0.571-0.187c0.275-0.135,0.494-0.216,0.655-0.239
									c0.165-0.028,0.329-0.004,0.498,0.062c0.163,0.068,0.325,0.193,0.483,0.376c0.14,0.165,0.242,0.353,0.295,0.561
									c0.057,0.211,0.05,0.407-0.019,0.597c-0.065,0.189-0.192,0.369-0.387,0.55c-0.275,0.258-0.559,0.373-0.854,0.345
									C27.409,401.079,27.108,400.918,26.803,400.623z"/>
							</g>
							<g>
								<path fill="#1E448C" d="M29.821,399.501l-1.74-2.697l0.494-0.341l1.739,2.696L29.821,399.501z"/>
							</g>
							<g>
								<path fill="#1E448C" d="M31.855,398.357l-0.979-2.218l-0.634,0.301l-0.198-0.454l1.696-0.805l0.198,0.454l-0.631,0.301
									l0.979,2.219L31.855,398.357z"/>
							</g>
							<g>
								<path fill="#1E448C" d="M34.434,397.544l-0.373-0.994l-1.246-1.069l0.473-0.193l0.82,0.746l0.107-1.122l0.468-0.189
									l-0.222,1.666l0.369,0.991L34.434,397.544z"/>
							</g>
						</g>
					</g>
					<g>
						<g>
							<path fill="none" stroke="#FFFFFF" stroke-width="0.5" d="M41.195,412.765c0,4.975-4.378,9.001-9.77,9.001
								c-5.394,0-9.771-4.026-9.771-9.001c0-4.965,4.377-8.998,9.771-8.998C36.817,403.767,41.195,407.8,41.195,412.765z"/>
							<path fill="#0072BC" stroke="#FFFFFF" stroke-width="0.5" d="M41.195,412.765c0,4.975-4.378,9.001-9.77,9.001
								c-5.394,0-9.771-4.026-9.771-9.001c0-4.965,4.377-8.998,9.771-8.998C36.817,403.767,41.195,407.8,41.195,412.765z"/>
							<path fill="none" stroke="#FFFFFF" stroke-width="0.5" d="M32.977,405.6c1.608,2.431,3.001,5.675,3.001,9.231
								c0,2.286-0.403,4.437-1.115,6.328"/>
							<path fill="none" stroke="#FFFFFF" stroke-width="0.5" d="M37.115,405.433c-1.262,1.8-3.073,2.938-5.09,2.942
								c-2.209,0-4.186-1.367-5.446-3.483"/>
							<path fill="none" stroke="#FFFFFF" stroke-width="0.5" d="M39.862,408.126c-1.578,2.685-4.412,4.468-7.646,4.468
								c-3.706,0-6.891-2.343-8.258-5.694"/>
							<path fill="none" stroke="#FFFFFF" stroke-width="0.5" d="M40.604,409.577c-1.363,3.455-4.958,5.925-9.182,5.925
								c-4.202,0-7.789-2.451-9.172-5.882"/>
							<path fill="none" stroke="#FFFFFF" stroke-width="0.5" d="M37.92,413.771c0,4.418-2.907,7.989-6.497,7.989
								c-3.592,0-6.503-3.571-6.503-7.989c0-4.409,2.911-7.988,6.503-7.988C35.015,405.783,37.92,409.362,37.92,413.771z"/>
							<path fill="none" stroke="#FFFFFF" stroke-width="0.5" d="M37.92,413.771c0,4.418-2.907,7.989-6.497,7.989
								c-3.592,0-6.503-3.571-6.503-7.989c0-4.409,2.911-7.988,6.503-7.988C35.015,405.783,37.92,409.362,37.92,413.771z"/>
							<path fill="none" stroke="#FFFFFF" stroke-width="0.5" d="M41.169,411.813c0,3.388-4.353,6.007-9.746,6.007
								c-5.203,0-9.457-2.548-9.752-5.771"/>
							<path fill="none" stroke="#FFFFFF" stroke-width="0.5" d="M21.656,412.128c0.892-3.791,4.942-6.655,9.805-6.655
								c4.822,0,8.787,2.88,9.713,6.63"/>
							<path fill="none" stroke="#FFFFFF" stroke-width="0.5" d="M30.895,421.74c-1.202-0.769-2.104-4.076-2.104-8.05
								c0-4.536,1.182-8.219,2.632-8.219c1.457,0,2.636,3.683,2.636,8.219c0,3.931-0.89,7.221-2.072,8.021"/>
							<path fill="none" stroke="#FFFFFF" stroke-width="0.5" d="M31.234,421.818c-0.534-1.712-0.876-4.207-0.876-6.981
								c0-5.173,1.184-9.364,2.635-9.364"/>
							<path fill="none" stroke="#FFFFFF" stroke-width="0.5" d="M41.195,411.984c0,4.535-4.378,8.215-9.77,8.215
								c-5.394,0-9.771-3.68-9.771-8.215"/>
							<path fill="#00A8DE" stroke="#FFFFFF" stroke-width="0.5" d="M33.666,405.756c0,0.708-0.845,1.282-1.883,1.282
								c-1.041,0-1.88-0.577-1.88-1.282c0-0.706,0.839-1.273,1.88-1.273C32.824,404.484,33.666,405.05,33.666,405.756z"/>
						</g>
						<g>
							<g>
								<path fill="#CBAD78" d="M34.865,414.296c0,0-1.019,0.383-0.652,2.166c0,0-0.513,0.043-1.709-1.889H30.61l-0.917,0.972
									c0,0-0.604-0.301-1.407,0.426c0,0,0.198,0.454,1.205,0.041c0,0-0.658,1.563-2.118,2.171c0,0,1.014,0.609,0.111,1.112
									c0,0-0.345,0.141-0.345,0.728c0,0-2.085-1.114-2.355-2.73c0,0-0.319-1.684-1.071-2.706c0,0-1.444-0.658-0.964-2.46
									c0,0,0.438-1.958,1.642-1.709l0.021-0.363c0,0-0.299-1.063,0.768-1.035c0,0,0.661,0.531-0.423,1.065l-0.094,0.36
									c0,0,0.752,0.013,0.675,0.762c0,0-0.084,0.938,0.802,0.687c0,0,0.473-0.165,0.493,0.477c0,0,0.434,0.509,1.613-0.094
									c0,0-1.545-0.215-0.9-1.054c0,0,0.53-0.466,1.311,0.46c0,0,1.638-0.521,1.063,0.251c0,0-0.434,0.615,0.331,0.427
									c0,0,0.149-0.571,0.508-0.655c0,0-0.185-1.097-0.783-0.725c0,0-0.799,0.762-1.662-0.151l-0.063-0.131
									c0,0-1.501,0.463-2.349-0.719c0,0-0.131-0.322-0.087-0.628c0,0,0.031-0.466,0.823-0.408c0,0,2.947,0.019,1.755-0.726
									c0,0-0.117-0.056-0.54-0.211c0,0,0.994-0.678,2.038-0.557c0,0,0.221,1.817,2.436-0.171c0,0,0.689-0.768,1.672-0.554
									c0,0,0.745-0.023,1.105-1.258c0,0,1.253,0.251,1.377,2.357c0,0,0.87-0.45,1.021,0.333c0,0-0.121,0.6,1.172,0.963
									c0,0,0.852,0.739,0.131,1.443c0,0-0.847-0.932-1.408-0.48c0,0-0.188,0.467,0.886,1.212c0,0,1.314,0.715-0.027,1.849
									c0,0-1.441,0.756,0.105,1.256c0,0,0.453,0.836-1.144,0.591c0,0-0.525-0.057-0.809-0.252
									C36.211,414.734,35.394,414.182,34.865,414.296z"/>
								<path fill="#CBAD78" d="M29.453,419.06c0,0,0.466,0.641-0.612,1.06C28.845,420.122,28.325,419.6,29.453,419.06z"/>
								<path fill="#CBAD78" d="M40.703,413.653c0,0,0.32,2.933-2.417,5.095c0,0-0.093-0.024-0.01-0.239
									c0,0,1.427-1.519,0.961-2.397c0,0-1.051-0.06-1.554,0.854c0,0-1.246-0.177-0.954-0.805c0,0,0.184-0.152,0.199,0.152
									c0,0,0.137-0.436,0.076-0.481c0,0,0.517-0.074,0.528,0.565c0,0,0.584,0.036,1.152-0.974c0,0,0.218-0.392,0.591-0.708
									c0,0,0.227-1.134-0.4-1.689c0,0,1.006-0.316,0.926,0.805C39.803,413.83,39.504,415.723,40.703,413.653z"/>
								<path fill="#CBAD78" d="M27.323,405.118c-0.103,0.087,0.348,0.155,0.348,0.155c-0.386,0.987-0.124,1.799-0.124,1.799
									c1.353-0.966,2.39-0.944,2.39-0.944c0.799-2.938,3.561-0.947,3.561-0.947c0.73,0.228,1.498,0.051,1.498,0.051
									S32.057,402.294,27.323,405.118z"/>
							</g>
						</g>
					</g>
					<g>
						<path fill="#FFFFFF" stroke="#FFFEFE" stroke-width="0.3" d="M31.672,410.509l0.675-0.187
							c0.013-0.426,0.064-0.755,0.157-0.987c0.095-0.229,0.242-0.436,0.444-0.609c0.202-0.177,0.404-0.292,0.606-0.348
							c0.117-0.031,0.208-0.034,0.275-0.016c0.068,0.021,0.108,0.059,0.121,0.11c0.013,0.047,0,0.092-0.028,0.135
							c-0.03,0.044-0.08,0.073-0.143,0.09c-0.065,0.019-0.192,0.034-0.389,0.053c-0.097,0.01-0.164,0.022-0.222,0.031
							c-0.124,0.034-0.221,0.131-0.285,0.286c-0.067,0.154-0.105,0.351-0.108,0.587l-0.012,0.544l0.751-0.205l-0.003,0.181
							l-0.759,0.208l-0.059,1.634c-0.021,0.5-0.152,0.907-0.396,1.229c-0.242,0.32-0.537,0.528-0.896,0.624
							c-0.121,0.034-0.214,0.041-0.285,0.016c-0.072-0.021-0.115-0.059-0.128-0.118c-0.016-0.05-0.003-0.096,0.034-0.137
							c0.031-0.04,0.09-0.074,0.171-0.093c0.04-0.013,0.1-0.025,0.181-0.037c0.133-0.025,0.265-0.05,0.386-0.084
							c0.184-0.05,0.311-0.124,0.376-0.224c0.064-0.101,0.104-0.3,0.117-0.609l0.078-2.097l-0.678,0.187L31.672,410.509z"/>
					</g>
				</g>
			</g>
		</g>
		<g>
			<path fill="#750809" d="M99.281,418.631c0,5.639-2.417,9.622-7.249,11.952c-3.604,1.715-8.765,2.575-15.484,2.575
				c-6.546,0-11.794-1.004-15.749-3.004c-5.052-2.535-7.577-6.517-7.577-11.953v-27.946h11.663v26.592
				c0,3.351,1.296,5.779,3.888,7.292c1.889,1.104,4.236,1.656,7.049,1.656c4.788,0,8.081-0.876,9.884-2.635
				c1.538-1.51,2.305-3.737,2.305-6.68v-26.223H99.28L99.281,418.631L99.281,418.631L99.281,418.631z"/>
			<path fill="#750809" d="M119.209,433.158h-12.321v-42.903h12.321V433.158z"/>
			<path fill="#750809" d="M171.495,397.56h-17.197v35.721h-10.675V397.56H126.69v-7.305h44.805V397.56z"/>
			<path fill="#750809" d="M225.378,419.808c0,3.758-1.342,6.919-4.021,9.492c-2.682,2.572-6.083,3.858-10.212,3.858H178.53v-7.671
				h26.884c1.802,0,3.318-0.393,4.549-1.171c1.404-0.907,2.106-2.142,2.106-3.707c0-3.663-2.77-5.496-8.302-5.496h-13.574
				c-3.908,0-7.339-1.121-10.278-3.368c-2.944-2.246-4.414-5.103-4.414-8.571c0-3.837,1.438-6.95,4.315-9.336
				c2.877-2.389,6.667-3.583,11.365-3.583h31.165v7.366h-27.476c-1.229,0-2.47,0.479-3.722,1.433
				c-1.252,0.957-1.88,2.085-1.88,3.388c0,1.463,0.604,2.692,1.812,3.689c1.208,0.998,2.669,1.495,4.384,1.495h14.956
				c4.654,0,8.313,1.112,10.972,3.337C224.048,413.188,225.378,416.136,225.378,419.808z"/>
		</g>
		<g enable-background="new    ">
			<path d="M12.468,377.644h1.431c0.827-0.845,1.456-1.583,1.889-2.211c0.433-0.629,0.648-1.042,0.648-1.239
				c0-0.274-0.31-0.411-0.929-0.411c-0.359,0.024-0.997,0.083-1.912,0.176c-0.915,0.094-1.803,0.206-2.66,0.335
				c-0.771,0.111-1.388,0.225-1.852,0.342c-0.464,0.117-0.791,0.215-0.979,0.292c-0.189,0.077-0.307,0.132-0.351,0.166
				c0.468-0.019,0.861-0.029,1.184-0.029c0.505,0,0.757,0.043,0.757,0.13c0,0.039-0.177,0.087-0.53,0.147
				c-0.353,0.06-0.688,0.124-1.003,0.191c-0.309,0.067-0.61,0.146-0.904,0.238s-0.472,0.137-0.534,0.137
				c-0.146,0-0.266-0.042-0.36-0.126c-0.095-0.084-0.142-0.186-0.142-0.306c0-0.082,0.086-0.294,0.26-0.638
				c0.173-0.343,0.418-0.689,0.732-1.037c0.316-0.348,0.707-0.606,1.175-0.774c0.17-0.063,0.714-0.175,1.633-0.339
				c0.918-0.163,1.955-0.312,3.109-0.447c1.155-0.134,2.212-0.202,3.172-0.202c0.581,0,1.047,0.062,1.396,0.184
				s0.525,0.385,0.525,0.789c0,0.13-0.063,0.331-0.189,0.602c-0.126,0.271-0.327,0.619-0.601,1.041
				c-0.275,0.423-0.609,0.886-1.004,1.391c-0.396,0.505-0.845,1.037-1.35,1.599h1.458l-1.259,1.376
				c-0.17,0.01-0.384,0.017-0.639,0.022c-0.257,0.005-0.535,0.012-0.839,0.021c-0.775,0.769-1.616,1.491-2.522,2.168
				c-0.906,0.677-1.728,1.22-2.461,1.628c-0.735,0.408-1.251,0.612-1.548,0.612c-0.12,0-0.225-0.03-0.313-0.09
				s-0.133-0.138-0.133-0.234c0-0.082,0.141-0.291,0.421-0.627c0.281-0.336,0.671-0.651,1.169-0.944s1.066-0.456,1.704-0.49
				c0.259-0.207,0.481-0.39,0.667-0.551c0.187-0.161,0.45-0.394,0.791-0.699c0.341-0.305,0.604-0.539,0.786-0.703l-2.85,0.108
				c-0.311,0.01-0.522-0.001-0.64-0.033c-0.117-0.031-0.175-0.109-0.175-0.234c0.126-0.245,0.224-0.413,0.293-0.504
				c0.101-0.139,0.182-0.223,0.242-0.252c0.06-0.029,0.231-0.067,0.516-0.115l1.742-0.324
				C11.96,377.689,12.284,377.644,12.468,377.644z"/>
			<path d="M21.707,378.472c-0.915,0.922-1.61,1.578-2.087,1.967c-0.476,0.389-0.866,0.583-1.169,0.583
				c-0.24,0-0.461-0.076-0.663-0.227s-0.357-0.355-0.468-0.612c-0.111-0.257-0.166-0.532-0.166-0.825
				c0-0.192,0.024-0.365,0.071-0.519c0.047-0.154,0.137-0.323,0.27-0.508s0.309-0.385,0.525-0.602
				c0.218-0.216,0.483-0.461,0.8-0.735c0.188-0.168,0.349-0.31,0.478-0.425c0.129-0.115,0.256-0.193,0.378-0.234
				c0.124-0.041,0.324-0.061,0.603-0.061c0.202,0,0.394,0.021,0.577,0.061c0.183,0.041,0.274,0.083,0.274,0.126
				c0,0.086-0.093,0.242-0.278,0.468c-0.188,0.226-0.486,0.5-0.899,0.825c-0.414,0.324-0.892,0.643-1.435,0.955
				c-0.12,0.283-0.181,0.5-0.181,0.648c0,0.207,0.104,0.31,0.313,0.31c0.076,0,0.202-0.049,0.378-0.147s0.475-0.288,0.895-0.569
				c0.419-0.281,0.797-0.529,1.132-0.746c0.245-0.163,0.53-0.407,0.855-0.731c0.325-0.324,0.588-0.568,0.791-0.731
				c0.467-0.375,0.786-0.618,0.956-0.731c0.17-0.113,0.334-0.169,0.493-0.169c0.15,0,0.254,0.036,0.308,0.108
				c0.054,0.072,0.081,0.219,0.081,0.439c0,0.101-0.013,0.183-0.038,0.245c-0.024,0.062-0.077,0.143-0.155,0.241
				c-0.079,0.098-0.238,0.28-0.479,0.544c-0.24,0.264-0.524,0.576-0.852,0.937c-0.178,0.192-0.332,0.402-0.465,0.63
				c-0.132,0.228-0.198,0.4-0.198,0.515c0,0.25,0.129,0.375,0.388,0.375c0.214,0,0.464-0.067,0.748-0.202
				c0.284-0.134,0.72-0.377,1.307-0.728v0.482c-0.737,0.519-1.283,0.896-1.638,1.131c-0.354,0.235-0.66,0.413-0.918,0.533
				c-0.258,0.12-0.505,0.18-0.738,0.18c-0.529,0-0.795-0.24-0.795-0.721c0-0.183,0.079-0.429,0.237-0.738
				C21.098,379.506,21.354,379.058,21.707,378.472z"/>
			<path d="M28.032,375.223h0.407c0.334-0.457,0.638-0.779,0.909-0.969c0.271-0.189,0.581-0.284,0.928-0.284s0.521,0.06,0.521,0.18
				c0,0.058-0.136,0.214-0.406,0.468c-0.271,0.255-0.478,0.468-0.616,0.642c0.215,0.019,0.406,0.036,0.573,0.05
				s0.298,0.026,0.393,0.036c-0.36,0.509-0.811,1.03-1.354,1.563c-0.178-0.009-0.325-0.018-0.445-0.025
				c-0.12-0.007-0.241-0.015-0.364-0.022c-0.123-0.007-0.272-0.015-0.45-0.025c-0.341,0.418-0.626,0.791-0.856,1.12
				c-0.231,0.329-0.407,0.63-0.53,0.904c-0.123,0.273-0.185,0.533-0.185,0.778c0,0.332,0.173,0.497,0.521,0.497
				c0.24,0,0.554-0.097,0.942-0.292c0.388-0.195,0.906-0.494,1.557-0.897v0.482c-1.704,1.408-2.963,2.111-3.777,2.111
				c-0.283,0-0.513-0.084-0.687-0.252c-0.173-0.168-0.26-0.384-0.26-0.648c0-0.178,0.049-0.389,0.146-0.634
				c0.099-0.245,0.273-0.615,0.525-1.109c-0.089,0.058-0.172,0.114-0.251,0.169s-0.151,0.106-0.218,0.151
				c-0.066,0.046-0.138,0.094-0.214,0.144c-0.075,0.051-0.151,0.102-0.228,0.155v-0.497c0.663-0.422,1.464-1.165,2.405-2.226
				c-0.096-0.004-0.184-0.008-0.266-0.011c-0.082-0.003-0.18-0.003-0.293-0.003c-0.373,0-0.649,0.019-0.833,0.058
				c-0.076,0.014-0.146,0.03-0.213,0.047c-0.065,0.017-0.112,0.025-0.137,0.025c-0.025,0-0.038-0.014-0.038-0.043
				c0-0.159,0.129-0.396,0.388-0.713c0.208-0.269,0.405-0.468,0.593-0.598c0.186-0.129,0.412-0.217,0.682-0.263
				C27.169,375.246,27.546,375.223,28.032,375.223z"/>
			<path d="M34.015,378.472c-0.915,0.922-1.611,1.578-2.087,1.967c-0.477,0.389-0.866,0.583-1.17,0.583
				c-0.239,0-0.461-0.076-0.662-0.227c-0.202-0.151-0.358-0.355-0.469-0.612c-0.11-0.257-0.166-0.532-0.166-0.825
				c0-0.192,0.024-0.365,0.071-0.519c0.047-0.154,0.137-0.323,0.271-0.508c0.133-0.185,0.308-0.385,0.524-0.602
				c0.218-0.216,0.484-0.461,0.8-0.735c0.189-0.168,0.35-0.31,0.479-0.425c0.129-0.115,0.255-0.193,0.378-0.234
				c0.124-0.041,0.324-0.061,0.602-0.061c0.202,0,0.395,0.021,0.577,0.061c0.184,0.041,0.275,0.083,0.275,0.126
				c0,0.086-0.093,0.242-0.279,0.468s-0.486,0.5-0.899,0.825c-0.413,0.324-0.892,0.643-1.435,0.955c-0.12,0.283-0.18,0.5-0.18,0.648
				c0,0.207,0.104,0.31,0.313,0.31c0.076,0,0.202-0.049,0.378-0.147c0.177-0.098,0.476-0.288,0.896-0.569
				c0.419-0.281,0.796-0.529,1.131-0.746c0.246-0.163,0.531-0.407,0.855-0.731c0.325-0.324,0.589-0.568,0.791-0.731
				c0.468-0.375,0.786-0.618,0.956-0.731c0.17-0.113,0.334-0.169,0.493-0.169c0.151,0,0.254,0.036,0.309,0.108
				c0.053,0.072,0.081,0.219,0.081,0.439c0,0.101-0.014,0.183-0.038,0.245c-0.025,0.062-0.077,0.143-0.156,0.241
				s-0.238,0.28-0.479,0.544c-0.239,0.264-0.523,0.576-0.852,0.937c-0.177,0.192-0.332,0.402-0.464,0.63
				c-0.132,0.228-0.199,0.4-0.199,0.515c0,0.25,0.129,0.375,0.388,0.375c0.215,0,0.465-0.067,0.748-0.202
				c0.284-0.134,0.721-0.377,1.308-0.728v0.482c-0.738,0.519-1.284,0.896-1.639,1.131c-0.354,0.235-0.659,0.413-0.918,0.533
				c-0.258,0.12-0.505,0.18-0.737,0.18c-0.53,0-0.795-0.24-0.795-0.721c0-0.183,0.078-0.429,0.236-0.738
				C33.406,379.506,33.661,379.058,34.015,378.472z"/>
			<path d="M36.921,379.517v-0.468c0.342-0.307,0.601-0.569,0.776-0.785c-0.202-0.053-0.349-0.118-0.44-0.194
				c-0.092-0.077-0.138-0.192-0.138-0.346c0-0.173,0.095-0.392,0.284-0.656c0.188-0.264,0.423-0.512,0.701-0.742
				c0.277-0.23,0.529-0.379,0.757-0.447c0.088-0.033,0.173-0.05,0.256-0.05c0.126,0,0.189,0.046,0.189,0.137
				c0,0.082-0.099,0.248-0.293,0.498c1.3-0.154,2.12-0.231,2.461-0.231c0.133,0,0.224,0.01,0.274,0.029
				c0.107,0.043,0.195,0.145,0.266,0.303c0.068,0.159,0.104,0.317,0.104,0.476c0,0.101-0.059,0.21-0.175,0.328
				c-0.116,0.118-0.317,0.29-0.602,0.515c-0.334,0.274-0.614,0.572-0.843,0.894c-0.227,0.322-0.341,0.564-0.341,0.728
				c0,0.226,0.183,0.338,0.549,0.338c0.385,0,1.055-0.297,2.007-0.893v0.482c-0.523,0.418-0.956,0.747-1.297,0.987
				c-0.341,0.24-0.655,0.431-0.946,0.573s-0.55,0.212-0.776,0.212c-0.265,0-0.486-0.092-0.663-0.277s-0.265-0.453-0.265-0.803
				c0-0.207,0.068-0.442,0.208-0.706c0.139-0.264,0.342-0.551,0.609-0.861c0.27-0.31,0.57-0.619,0.904-0.926
				c-0.177,0.029-0.375,0.059-0.597,0.09c-0.222,0.031-0.454,0.064-0.7,0.097c-0.246,0.034-0.437,0.06-0.568,0.08
				C38.234,378.491,37.666,379.032,36.921,379.517z"/>
			<path d="M44.192,379.222v0.18c0,0.284,0.092,0.504,0.274,0.663c0.184,0.158,0.424,0.238,0.72,0.238
				c0.309,0,0.63-0.055,0.961-0.166c0.332-0.11,0.661-0.257,0.989-0.439c0.327-0.182,0.729-0.427,1.202-0.735v0.439
				c-0.713,0.653-1.382,1.154-2.007,1.502c-0.625,0.348-1.259,0.522-1.902,0.522c-0.563,0-1.008-0.166-1.335-0.497
				c-0.328-0.331-0.492-0.785-0.492-1.361c0-0.504,0.154-0.962,0.464-1.373c0.309-0.411,0.813-0.844,1.515-1.3
				c0.48-0.312,0.957-0.548,1.431-0.706c0.474-0.159,0.896-0.238,1.269-0.238c0.297,0,0.532,0.052,0.706,0.155
				c0.173,0.104,0.26,0.258,0.26,0.465c0,0.303-0.147,0.604-0.445,0.904c-0.297,0.3-0.75,0.598-1.358,0.893
				C45.832,378.663,45.082,378.948,44.192,379.222z M44.287,378.753c0.568-0.168,1.054-0.377,1.458-0.626
				c0.404-0.25,0.702-0.489,0.896-0.717c0.192-0.228,0.289-0.395,0.289-0.501c0-0.11-0.066-0.166-0.199-0.166
				c-0.114,0-0.298,0.055-0.555,0.166c-0.255,0.111-0.514,0.255-0.775,0.433c-0.262,0.178-0.497,0.386-0.706,0.626
				C44.485,378.208,44.35,378.47,44.287,378.753z"/>
			<path d="M58.734,379.812c0,0.216,0.106,0.324,0.322,0.324c0.276,0,0.764-0.357,1.458-1.073c-0.025-0.134-0.038-0.223-0.038-0.267
				c0-0.259,0.136-0.576,0.406-0.951c0.271-0.375,0.583-0.701,0.938-0.979c0.354-0.279,0.622-0.418,0.805-0.418
				c0.222,0,0.332,0.202,0.332,0.605c0,0.332-0.093,0.658-0.278,0.98c-0.187,0.322-0.456,0.651-0.811,0.987
				c0.057,0.043,0.12,0.088,0.189,0.133c0.068,0.046,0.144,0.084,0.223,0.115c0.079,0.032,0.162,0.047,0.25,0.047
				c0.208,0,0.474-0.127,0.795-0.382v0.512c-0.499,0.394-0.931,0.591-1.297,0.591c-0.215,0-0.383-0.021-0.506-0.062
				s-0.279-0.114-0.469-0.22c-1.162,1.062-2.046,1.592-2.651,1.592c-0.233,0-0.418-0.066-0.554-0.198
				c-0.137-0.132-0.204-0.315-0.204-0.551c0-0.115,0.063-0.548,0.188-1.297c-0.246,0.216-0.534,0.471-0.861,0.764
				c-0.328,0.293-0.594,0.518-0.796,0.673c-0.201,0.156-0.39,0.277-0.563,0.364c-0.174,0.086-0.349,0.13-0.525,0.13
				c-0.17,0-0.374-0.082-0.61-0.245c-0.236-0.163-0.438-0.38-0.602-0.652s-0.246-0.563-0.246-0.875c0-0.302,0.058-0.562,0.17-0.778
				c0.113-0.216,0.373-0.541,0.776-0.973c0.366-0.384,0.691-0.699,0.975-0.944c0.284-0.245,0.541-0.435,0.771-0.569
				c0.229-0.135,0.418-0.202,0.563-0.202c0.089,0,0.204,0.016,0.346,0.046c0.142,0.032,0.269,0.073,0.379,0.126
				c0.11,0.053,0.166,0.108,0.166,0.166c0,0.183-0.105,0.413-0.317,0.691c-0.211,0.279-0.524,0.591-0.941,0.937
				c-0.417,0.346-0.895,0.699-1.431,1.059c-0.146,0.332-0.218,0.601-0.218,0.807c0,0.067,0.027,0.131,0.081,0.191
				c0.053,0.06,0.118,0.09,0.194,0.09c0.259,0,0.756-0.307,1.49-0.922c0.735-0.615,1.706-1.546,2.911-2.795
				c0.044-0.048,0.14-0.072,0.284-0.072c0.158,0,0.301,0.027,0.431,0.08c0.131,0.053,0.194,0.125,0.194,0.216
				c0,0.053-0.166,0.334-0.497,0.843s-0.619,0.976-0.86,1.401C58.855,379.283,58.734,379.601,58.734,379.812z"/>
			<path d="M67.813,378.962v0.526c-0.612,0.601-1.185,1.053-1.713,1.358c-0.53,0.305-0.981,0.458-1.354,0.458
				c-0.518,0-0.903-0.207-1.155-0.62s-0.379-0.865-0.379-1.354c0-0.188,0.025-0.366,0.076-0.537c0.051-0.17,0.11-0.311,0.18-0.422
				c0.069-0.11,0.199-0.283,0.389-0.519c0.896-1.062,1.716-1.592,2.461-1.592c0.385,0,0.577,0.113,0.577,0.339
				c0,0.154-0.125,0.394-0.374,0.72c-0.25,0.327-0.473,0.56-0.667,0.699c-0.549,0.403-0.908,0.684-1.075,0.843
				c-0.167,0.158-0.251,0.338-0.251,0.54c0,0.173,0.085,0.317,0.256,0.433s0.391,0.173,0.663,0.173c0.296,0,0.623-0.083,0.979-0.249
				S67.245,379.327,67.813,378.962z M67.169,375.742c-0.157,0-0.308-0.045-0.449-0.137c-0.143-0.092-0.214-0.207-0.214-0.346
				c0-0.211,0.134-0.447,0.398-0.706c0.265-0.26,0.54-0.389,0.824-0.389c0.188,0,0.347,0.044,0.473,0.133s0.189,0.217,0.189,0.385
				c0,0.207-0.129,0.435-0.389,0.685C67.743,375.617,67.466,375.742,67.169,375.742z"/>
			<path d="M72.253,378.883v0.533c-1.318,1.331-2.392,1.996-3.219,1.996c-0.448,0-0.8-0.186-1.056-0.559
				c-0.255-0.372-0.383-0.861-0.383-1.466c0-0.49,0.15-1.072,0.453-1.747c0.304-0.675,0.708-1.359,1.218-2.053
				c0.508-0.694,1.034-1.299,1.581-1.815c0.546-0.516,1.052-0.878,1.52-1.084c0.189-0.086,0.337-0.129,0.445-0.129
				c0.132,0,0.221,0.044,0.265,0.133s0.066,0.241,0.066,0.458c0,0.667-0.357,1.487-1.07,2.46s-1.708,1.966-2.982,2.979
				c-0.063,0.25-0.095,0.442-0.095,0.576c0,0.308,0.087,0.558,0.261,0.75s0.415,0.288,0.725,0.288c0.158,0,0.328-0.047,0.511-0.141
				c0.183-0.093,0.375-0.21,0.577-0.349C71.271,379.572,71.666,379.296,72.253,378.883z M69.422,377.586
				c0.328-0.245,0.646-0.523,0.951-0.835c0.307-0.313,0.595-0.646,0.866-1.001c0.271-0.355,0.484-0.675,0.639-0.958
				c0.155-0.284,0.232-0.498,0.232-0.642c0-0.11-0.05-0.166-0.151-0.166c-0.038,0-0.109,0.026-0.218,0.079
				c-0.385,0.24-0.817,0.71-1.297,1.409C69.965,376.17,69.624,376.875,69.422,377.586z"/>
			<path d="M76.693,378.883v0.533c-1.319,1.331-2.393,1.996-3.219,1.996c-0.448,0-0.801-0.186-1.057-0.559
				c-0.255-0.372-0.383-0.861-0.383-1.466c0-0.49,0.151-1.072,0.454-1.747c0.303-0.675,0.708-1.359,1.217-2.053
				c0.508-0.694,1.035-1.299,1.581-1.815s1.052-0.878,1.521-1.084c0.188-0.086,0.337-0.129,0.444-0.129
				c0.132,0,0.222,0.044,0.266,0.133s0.065,0.241,0.065,0.458c0,0.667-0.356,1.487-1.069,2.46c-0.714,0.973-1.708,1.966-2.982,2.979
				c-0.063,0.25-0.095,0.442-0.095,0.576c0,0.308,0.087,0.558,0.261,0.75c0.173,0.192,0.415,0.288,0.724,0.288
				c0.158,0,0.328-0.047,0.512-0.141c0.183-0.093,0.375-0.21,0.576-0.349C75.712,379.572,76.106,379.296,76.693,378.883z
				 M73.863,377.586c0.328-0.245,0.645-0.523,0.951-0.835c0.306-0.313,0.595-0.646,0.866-1.001c0.271-0.355,0.483-0.675,0.639-0.958
				c0.155-0.284,0.231-0.498,0.231-0.642c0-0.11-0.05-0.166-0.15-0.166c-0.038,0-0.11,0.026-0.218,0.079
				c-0.386,0.24-0.817,0.71-1.298,1.409C74.405,376.17,74.064,376.875,73.863,377.586z"/>
			<path d="M88.319,378.977v0.468c-0.657,0.317-1.174,0.476-1.553,0.476c-0.208,0-0.43-0.026-0.663-0.08
				c-0.568,0.548-1.057,0.949-1.463,1.203c-0.407,0.255-0.816,0.382-1.227,0.382c-0.473,0-0.838-0.189-1.093-0.569
				c-0.256-0.379-0.383-0.85-0.383-1.412c0-0.764,0.303-1.596,0.909-2.497c0.605-0.9,1.336-1.743,2.19-2.528
				c0.855-0.786,1.685-1.435,2.485-1.949c0.801-0.514,1.344-0.771,1.628-0.771c0.271,0,0.407,0.142,0.407,0.425
				c0,1.259-2.121,3.454-6.362,6.585c-0.013,0.086-0.02,0.257-0.02,0.512c0,0.663,0.234,0.994,0.701,0.994
				c0.184,0,0.368-0.057,0.555-0.169c0.186-0.113,0.472-0.328,0.855-0.645c-0.15-0.259-0.227-0.451-0.227-0.576
				c0-0.264,0.142-0.55,0.426-0.857c0.284-0.307,0.607-0.573,0.971-0.796c0.363-0.224,0.626-0.335,0.791-0.335
				c0.259,0,0.389,0.142,0.389,0.425c0,0.216-0.074,0.476-0.224,0.778c-0.147,0.302-0.364,0.648-0.647,1.037
				c0.106,0.067,0.191,0.117,0.255,0.148c0.063,0.031,0.158,0.047,0.284,0.047C87.596,379.272,87.934,379.173,88.319,378.977z
				 M83.51,377.896c0.328-0.216,0.658-0.472,0.989-0.768c0.332-0.295,0.816-0.748,1.453-1.358c0.612-0.586,1.094-1.075,1.444-1.466
				c0.351-0.392,0.613-0.717,0.791-0.977c0.177-0.259,0.265-0.437,0.265-0.533c0-0.072-0.024-0.108-0.076-0.108
				c-0.139,0-0.428,0.174-0.865,0.522c-0.439,0.348-0.939,0.825-1.5,1.43c-0.776,0.835-1.339,1.465-1.686,1.887
				C83.977,376.95,83.705,377.406,83.51,377.896z"/>
			<path d="M89.833,379.222v0.18c0,0.284,0.092,0.504,0.275,0.663c0.183,0.158,0.423,0.238,0.719,0.238
				c0.31,0,0.63-0.055,0.961-0.166c0.332-0.11,0.661-0.257,0.989-0.439c0.328-0.182,0.729-0.427,1.203-0.735v0.439
				c-0.713,0.653-1.382,1.154-2.007,1.502c-0.625,0.348-1.26,0.522-1.903,0.522c-0.563,0-1.007-0.166-1.335-0.497
				s-0.492-0.785-0.492-1.361c0-0.504,0.155-0.962,0.464-1.373c0.31-0.411,0.814-0.844,1.516-1.3
				c0.479-0.312,0.957-0.548,1.43-0.706c0.474-0.159,0.896-0.238,1.269-0.238c0.297,0,0.532,0.052,0.706,0.155
				c0.173,0.104,0.261,0.258,0.261,0.465c0,0.303-0.148,0.604-0.445,0.904c-0.297,0.3-0.75,0.598-1.359,0.893
				S90.723,378.948,89.833,379.222z M89.928,378.753c0.567-0.168,1.054-0.377,1.458-0.626c0.403-0.25,0.701-0.489,0.895-0.717
				s0.289-0.395,0.289-0.501c0-0.11-0.066-0.166-0.199-0.166c-0.114,0-0.298,0.055-0.554,0.166
				c-0.255,0.111-0.514,0.255-0.776,0.433c-0.262,0.178-0.497,0.386-0.706,0.626C90.126,378.208,89.991,378.47,89.928,378.753z"/>
			<path d="M105.691,378.977v0.468c-0.657,0.317-1.174,0.476-1.553,0.476c-0.208,0-0.43-0.026-0.663-0.08
				c-0.568,0.548-1.057,0.949-1.463,1.203c-0.407,0.255-0.816,0.382-1.227,0.382c-0.473,0-0.838-0.189-1.093-0.569
				c-0.256-0.379-0.383-0.85-0.383-1.412c0-0.764,0.303-1.596,0.909-2.497c0.605-0.9,1.336-1.743,2.19-2.528
				c0.855-0.786,1.685-1.435,2.485-1.949c0.801-0.514,1.344-0.771,1.628-0.771c0.271,0,0.407,0.142,0.407,0.425
				c0,1.259-2.121,3.454-6.362,6.585c-0.013,0.086-0.02,0.257-0.02,0.512c0,0.663,0.234,0.994,0.701,0.994
				c0.184,0,0.368-0.057,0.555-0.169c0.186-0.113,0.472-0.328,0.855-0.645c-0.151-0.259-0.227-0.451-0.227-0.576
				c0-0.264,0.142-0.55,0.426-0.857c0.284-0.307,0.606-0.573,0.971-0.796c0.363-0.224,0.626-0.335,0.791-0.335
				c0.259,0,0.388,0.142,0.388,0.425c0,0.216-0.073,0.476-0.223,0.778c-0.147,0.302-0.364,0.648-0.647,1.037
				c0.106,0.067,0.191,0.117,0.255,0.148c0.063,0.031,0.157,0.047,0.283,0.047C104.968,379.272,105.306,379.173,105.691,378.977z
				 M100.882,377.896c0.328-0.216,0.658-0.472,0.989-0.768c0.332-0.295,0.816-0.748,1.453-1.358
				c0.612-0.586,1.094-1.075,1.444-1.466c0.351-0.392,0.613-0.717,0.791-0.977c0.177-0.259,0.265-0.437,0.265-0.533
				c0-0.072-0.025-0.108-0.076-0.108c-0.139,0-0.428,0.174-0.866,0.522s-0.938,0.825-1.5,1.43c-0.775,0.835-1.338,1.465-1.685,1.887
				C101.349,376.95,101.077,377.406,100.882,377.896z"/>
			<path d="M107.205,379.222v0.18c0,0.284,0.092,0.504,0.275,0.663c0.183,0.158,0.423,0.238,0.719,0.238
				c0.309,0,0.63-0.055,0.961-0.166c0.332-0.11,0.661-0.257,0.989-0.439c0.328-0.182,0.729-0.427,1.203-0.735v0.439
				c-0.713,0.653-1.382,1.154-2.007,1.502c-0.625,0.348-1.26,0.522-1.903,0.522c-0.563,0-1.007-0.166-1.335-0.497
				s-0.492-0.785-0.492-1.361c0-0.504,0.155-0.962,0.464-1.373c0.31-0.411,0.814-0.844,1.516-1.3
				c0.479-0.312,0.956-0.548,1.43-0.706c0.474-0.159,0.896-0.238,1.269-0.238c0.297,0,0.532,0.052,0.706,0.155
				c0.173,0.104,0.26,0.258,0.26,0.465c0,0.303-0.147,0.604-0.444,0.904c-0.297,0.3-0.75,0.598-1.359,0.893
				S108.095,378.948,107.205,379.222z M107.3,378.753c0.568-0.168,1.055-0.377,1.458-0.626c0.404-0.25,0.702-0.489,0.896-0.717
				s0.289-0.395,0.289-0.501c0-0.11-0.066-0.166-0.199-0.166c-0.114,0-0.298,0.055-0.554,0.166
				c-0.255,0.111-0.515,0.255-0.776,0.433c-0.262,0.178-0.497,0.386-0.706,0.626C107.498,378.208,107.363,378.47,107.3,378.753z"/>
			<path d="M114.676,375.223h0.407c0.334-0.457,0.639-0.779,0.909-0.969c0.271-0.189,0.581-0.284,0.928-0.284
				c0.348,0,0.521,0.06,0.521,0.18c0,0.058-0.136,0.214-0.407,0.468c-0.271,0.255-0.477,0.468-0.616,0.642
				c0.215,0.019,0.406,0.036,0.573,0.05s0.298,0.026,0.393,0.036c-0.359,0.509-0.811,1.03-1.354,1.563
				c-0.177-0.009-0.325-0.018-0.445-0.025c-0.12-0.007-0.24-0.015-0.363-0.022c-0.123-0.007-0.273-0.015-0.45-0.025
				c-0.341,0.418-0.626,0.791-0.857,1.12c-0.23,0.329-0.407,0.63-0.53,0.904c-0.122,0.273-0.185,0.533-0.185,0.778
				c0,0.332,0.173,0.497,0.521,0.497c0.239,0,0.554-0.097,0.941-0.292c0.388-0.195,0.907-0.494,1.558-0.897v0.482
				c-1.704,1.408-2.964,2.111-3.777,2.111c-0.284,0-0.513-0.084-0.688-0.252c-0.173-0.168-0.26-0.384-0.26-0.648
				c0-0.178,0.049-0.389,0.147-0.634c0.098-0.245,0.272-0.615,0.524-1.109c-0.089,0.058-0.172,0.114-0.251,0.169
				s-0.15,0.106-0.218,0.151c-0.066,0.046-0.137,0.094-0.213,0.144c-0.076,0.051-0.152,0.102-0.229,0.155v-0.497
				c0.663-0.422,1.465-1.165,2.405-2.226c-0.095-0.004-0.183-0.008-0.265-0.011c-0.082-0.003-0.181-0.003-0.293-0.003
				c-0.373,0-0.65,0.019-0.833,0.058c-0.076,0.014-0.147,0.03-0.213,0.047c-0.066,0.017-0.112,0.025-0.138,0.025
				c-0.024,0-0.038-0.014-0.038-0.043c0-0.159,0.13-0.396,0.389-0.713c0.208-0.269,0.405-0.468,0.592-0.598
				c0.186-0.129,0.413-0.217,0.682-0.263C113.812,375.246,114.189,375.223,114.676,375.223z"/>
			<path d="M119.523,375.223h0.407c0.334-0.457,0.638-0.779,0.908-0.969c0.271-0.189,0.581-0.284,0.929-0.284
				c0.347,0,0.521,0.06,0.521,0.18c0,0.058-0.136,0.214-0.407,0.468c-0.271,0.255-0.477,0.468-0.615,0.642
				c0.215,0.019,0.405,0.036,0.572,0.05s0.299,0.026,0.394,0.036c-0.36,0.509-0.812,1.03-1.354,1.563
				c-0.177-0.009-0.324-0.018-0.444-0.025c-0.12-0.007-0.241-0.015-0.364-0.022c-0.123-0.007-0.273-0.015-0.45-0.025
				c-0.341,0.418-0.626,0.791-0.856,1.12c-0.231,0.329-0.407,0.63-0.53,0.904c-0.123,0.273-0.186,0.533-0.186,0.778
				c0,0.332,0.174,0.497,0.521,0.497c0.24,0,0.554-0.097,0.941-0.292c0.389-0.195,0.907-0.494,1.558-0.897v0.482
				c-1.704,1.408-2.963,2.111-3.777,2.111c-0.284,0-0.513-0.084-0.687-0.252c-0.173-0.168-0.261-0.384-0.261-0.648
				c0-0.178,0.05-0.389,0.147-0.634s0.273-0.615,0.525-1.109c-0.09,0.058-0.173,0.114-0.251,0.169
				c-0.079,0.055-0.151,0.106-0.219,0.151c-0.065,0.046-0.137,0.094-0.213,0.144c-0.076,0.051-0.151,0.102-0.228,0.155v-0.497
				c0.663-0.422,1.464-1.165,2.404-2.226c-0.095-0.004-0.183-0.008-0.265-0.011c-0.082-0.003-0.18-0.003-0.293-0.003
				c-0.373,0-0.649,0.019-0.833,0.058c-0.076,0.014-0.146,0.03-0.213,0.047c-0.066,0.017-0.112,0.025-0.137,0.025
				c-0.025,0-0.038-0.014-0.038-0.043c0-0.159,0.129-0.396,0.388-0.713c0.208-0.269,0.405-0.468,0.592-0.598
				c0.187-0.129,0.413-0.217,0.683-0.263C118.659,375.246,119.036,375.223,119.523,375.223z"/>
			<path d="M122.561,379.222v0.18c0,0.284,0.092,0.504,0.274,0.663c0.184,0.158,0.423,0.238,0.72,0.238
				c0.309,0,0.63-0.055,0.961-0.166c0.332-0.11,0.661-0.257,0.988-0.439c0.328-0.182,0.729-0.427,1.203-0.735v0.439
				c-0.713,0.653-1.382,1.154-2.007,1.502c-0.625,0.348-1.259,0.522-1.903,0.522c-0.562,0-1.007-0.166-1.335-0.497
				s-0.491-0.785-0.491-1.361c0-0.504,0.154-0.962,0.464-1.373c0.309-0.411,0.813-0.844,1.515-1.3
				c0.48-0.312,0.957-0.548,1.43-0.706c0.475-0.159,0.896-0.238,1.27-0.238c0.297,0,0.532,0.052,0.706,0.155
				c0.173,0.104,0.26,0.258,0.26,0.465c0,0.303-0.148,0.604-0.445,0.904c-0.297,0.3-0.75,0.598-1.358,0.893
				C124.201,378.663,123.451,378.948,122.561,379.222z M122.656,378.753c0.568-0.168,1.054-0.377,1.458-0.626
				c0.404-0.25,0.702-0.489,0.895-0.717c0.193-0.228,0.289-0.395,0.289-0.501c0-0.11-0.065-0.166-0.198-0.166
				c-0.114,0-0.299,0.055-0.555,0.166c-0.255,0.111-0.514,0.255-0.775,0.433c-0.263,0.178-0.497,0.386-0.706,0.626
				C122.854,378.208,122.719,378.47,122.656,378.753z"/>
			<path d="M126.614,379.517v-0.468c0.341-0.307,0.6-0.569,0.776-0.785c-0.202-0.053-0.35-0.118-0.44-0.194
				c-0.092-0.077-0.138-0.192-0.138-0.346c0-0.173,0.095-0.392,0.284-0.656c0.188-0.264,0.423-0.512,0.7-0.742
				c0.278-0.23,0.53-0.379,0.758-0.447c0.088-0.033,0.173-0.05,0.256-0.05c0.126,0,0.188,0.046,0.188,0.137
				c0,0.082-0.098,0.248-0.293,0.498c1.3-0.154,2.121-0.231,2.461-0.231c0.133,0,0.225,0.01,0.275,0.029
				c0.106,0.043,0.195,0.145,0.265,0.303c0.069,0.159,0.104,0.317,0.104,0.476c0,0.101-0.06,0.21-0.176,0.328
				c-0.115,0.118-0.316,0.29-0.601,0.515c-0.334,0.274-0.615,0.572-0.843,0.894c-0.228,0.322-0.341,0.564-0.341,0.728
				c0,0.226,0.183,0.338,0.549,0.338c0.385,0,1.054-0.297,2.007-0.893v0.482c-0.524,0.418-0.956,0.747-1.297,0.987
				c-0.341,0.24-0.656,0.431-0.947,0.573s-0.549,0.212-0.775,0.212c-0.266,0-0.486-0.092-0.663-0.277
				c-0.178-0.185-0.266-0.453-0.266-0.803c0-0.207,0.069-0.442,0.208-0.706c0.14-0.264,0.342-0.551,0.61-0.861
				s0.57-0.619,0.904-0.926c-0.178,0.029-0.375,0.059-0.598,0.09c-0.221,0.031-0.454,0.064-0.7,0.097
				c-0.245,0.034-0.436,0.06-0.567,0.08C127.927,378.491,127.358,379.032,126.614,379.517z"/>
			<path d="M141.136,375.223h0.406c0.334-0.457,0.639-0.779,0.909-0.969c0.271-0.189,0.581-0.284,0.928-0.284
				c0.348,0,0.521,0.06,0.521,0.18c0,0.058-0.136,0.214-0.407,0.468c-0.271,0.255-0.477,0.468-0.616,0.642
				c0.215,0.019,0.406,0.036,0.573,0.05s0.298,0.026,0.394,0.036c-0.36,0.509-0.812,1.03-1.354,1.563
				c-0.177-0.009-0.325-0.018-0.445-0.025c-0.12-0.007-0.24-0.015-0.363-0.022c-0.123-0.007-0.273-0.015-0.45-0.025
				c-0.341,0.418-0.626,0.791-0.857,1.12c-0.23,0.329-0.407,0.63-0.529,0.904c-0.123,0.273-0.186,0.533-0.186,0.778
				c0,0.332,0.173,0.497,0.521,0.497c0.239,0,0.554-0.097,0.941-0.292c0.388-0.195,0.907-0.494,1.558-0.897v0.482
				c-1.704,1.408-2.964,2.111-3.777,2.111c-0.284,0-0.513-0.084-0.688-0.252c-0.173-0.168-0.26-0.384-0.26-0.648
				c0-0.178,0.049-0.389,0.147-0.634c0.098-0.245,0.272-0.615,0.524-1.109c-0.089,0.058-0.172,0.114-0.251,0.169
				s-0.15,0.106-0.218,0.151c-0.066,0.046-0.137,0.094-0.213,0.144c-0.076,0.051-0.152,0.102-0.229,0.155v-0.497
				c0.663-0.422,1.465-1.165,2.405-2.226c-0.095-0.004-0.183-0.008-0.265-0.011c-0.082-0.003-0.18-0.003-0.293-0.003
				c-0.373,0-0.65,0.019-0.833,0.058c-0.076,0.014-0.147,0.03-0.213,0.047c-0.066,0.017-0.112,0.025-0.138,0.025
				c-0.024,0-0.037-0.014-0.037-0.043c0-0.159,0.129-0.396,0.388-0.713c0.208-0.269,0.405-0.468,0.592-0.598
				c0.187-0.129,0.413-0.217,0.682-0.263S140.65,375.223,141.136,375.223z"/>
			<path d="M149.742,378.962v0.454c-0.549,0.427-1.024,0.777-1.425,1.048c-0.401,0.271-0.751,0.477-1.051,0.616
				c-0.301,0.14-0.555,0.209-0.763,0.209c-0.491,0-0.737-0.221-0.737-0.663c0-0.355,0.152-0.768,0.459-1.236
				c0.306-0.468,0.746-1.02,1.32-1.653c-0.283,0.12-0.552,0.258-0.805,0.414c-0.252,0.156-0.477,0.32-0.672,0.49
				s-0.36,0.316-0.492,0.436c-0.41,0.351-0.805,0.71-1.184,1.077c-0.378,0.368-0.635,0.606-0.768,0.717
				c-0.133,0.111-0.259,0.166-0.379,0.166c-0.492,0-0.738-0.461-0.738-1.383c0-0.303,0.061-0.636,0.181-1.001
				c0.12-0.365,0.441-0.848,0.966-1.448c1.104-1.258,2.05-2.287,2.835-3.087c0.785-0.8,1.438-1.405,1.955-1.815
				c0.517-0.41,0.865-0.611,1.042-0.602c0.221,0.014,0.399,0.048,0.535,0.101c0.136,0.053,0.204,0.113,0.204,0.18
				c0,0.12-0.109,0.318-0.327,0.595c-0.218,0.276-0.592,0.707-1.122,1.293c-0.574,0.62-0.981,1.055-1.221,1.308
				c-0.24,0.252-0.599,0.61-1.074,1.073c-0.478,0.464-0.912,0.876-1.308,1.239c-0.395,0.363-0.844,0.755-1.349,1.178v0.865
				c0.846-0.716,1.578-1.302,2.196-1.758c0.619-0.457,1.143-0.801,1.572-1.034c0.429-0.233,0.744-0.35,0.946-0.35
				c0.189,0,0.366,0.085,0.53,0.256s0.247,0.311,0.247,0.421c0,0.048-0.032,0.108-0.095,0.18c-0.455,0.413-0.816,0.755-1.084,1.026
				c-0.27,0.271-0.476,0.514-0.62,0.728c-0.146,0.214-0.218,0.398-0.218,0.551c0,0.226,0.142,0.339,0.426,0.339
				C148.029,379.892,148.7,379.582,149.742,378.962z"/>
			<path d="M150.85,377.672c0.959-0.663,1.89-1.155,2.792-1.477c0.902-0.322,1.6-0.483,2.092-0.483c0.133,0,0.256,0.042,0.37,0.126
				c0.112,0.084,0.203,0.182,0.27,0.292c0.067,0.11,0.101,0.192,0.101,0.245c0,0.087-0.044,0.15-0.134,0.191
				c-0.088,0.041-0.242,0.09-0.464,0.148c0.044,0.077,0.102,0.175,0.17,0.295c0.069,0.12,0.123,0.217,0.161,0.292
				c0.038,0.075,0.058,0.141,0.058,0.198c0,0.115-0.153,0.331-0.459,0.645c-0.307,0.314-0.521,0.546-0.645,0.695
				c-0.123,0.149-0.185,0.331-0.185,0.547c0,0.355,0.215,0.533,0.644,0.533c0.441,0,1.133-0.314,2.073-0.944v0.439
				c-1.597,1.35-2.739,2.024-3.427,2.024c-0.246,0-0.421-0.062-0.525-0.184c-0.104-0.123-0.156-0.304-0.156-0.544
				c0-0.379,0.181-0.93,0.54-1.65c-0.921,0.778-1.605,1.332-2.054,1.661c-0.448,0.329-0.817,0.493-1.108,0.493
				c-0.139,0-0.312-0.091-0.521-0.273s-0.394-0.419-0.554-0.709c-0.161-0.291-0.242-0.592-0.242-0.904
				c0-0.226,0.027-0.415,0.085-0.565c0.057-0.151,0.167-0.306,0.331-0.465C150.227,378.139,150.49,377.932,150.85,377.672z
				 M155.385,376.88c-1.641,0.572-2.81,1.057-3.508,1.456c-0.696,0.398-1.046,0.809-1.046,1.232c0,0.154,0.035,0.28,0.104,0.378
				c0.068,0.099,0.164,0.148,0.284,0.148c0.068,0,0.191-0.034,0.368-0.101c0.663-0.298,1.27-0.686,1.818-1.164
				S154.615,377.701,155.385,376.88z"/>
			<path d="M163.99,377.658c-1.111,0.941-1.666,1.597-1.666,1.967c0,0.207,0.11,0.31,0.331,0.31c0.183,0,0.421-0.073,0.715-0.22
				s0.753-0.407,1.377-0.782v0.497c-0.896,0.673-1.584,1.158-2.063,1.456c-0.48,0.298-0.871,0.447-1.175,0.447
				c-0.518,0-0.775-0.26-0.775-0.778c0-0.154,0.031-0.305,0.094-0.454c0.063-0.149,0.15-0.304,0.261-0.465
				c0.11-0.161,0.279-0.392,0.507-0.692c0.227-0.3,0.488-0.64,0.785-1.019c-0.359,0.139-0.811,0.416-1.354,0.828
				c-0.354,0.26-0.653,0.506-0.899,0.739c-0.246,0.233-0.51,0.492-0.791,0.778c-0.28,0.286-0.485,0.478-0.615,0.577
				c-0.13,0.098-0.261,0.147-0.394,0.147c-0.202,0-0.388-0.161-0.559-0.482c-0.171-0.321-0.256-0.697-0.256-1.124
				c0-0.264,0.039-0.471,0.118-0.62s0.235-0.36,0.469-0.634c0.436-0.509,0.811-0.883,1.127-1.121
				c0.314-0.238,0.618-0.356,0.908-0.356c0.202,0,0.365,0.026,0.488,0.079c0.123,0.053,0.186,0.135,0.186,0.245
				c0,0.048-0.02,0.099-0.058,0.151c-0.038,0.053-0.08,0.101-0.127,0.144s-0.146,0.127-0.298,0.252
				c-0.998,0.841-1.496,1.386-1.496,1.635c0,0.14,0.061,0.209,0.18,0.209c0.076,0,0.223-0.092,0.44-0.277s0.499-0.427,0.843-0.728
				c0.345-0.3,0.751-0.613,1.222-0.94c0.47-0.327,1.005-0.641,1.604-0.944c0.334-0.178,0.612-0.267,0.833-0.267
				c0.101,0,0.2,0.105,0.298,0.317c0.099,0.211,0.147,0.425,0.147,0.641C164.397,377.281,164.261,377.442,163.99,377.658z"/>
			<path d="M173.457,375.223h0.407c0.334-0.457,0.638-0.779,0.909-0.969c0.271-0.189,0.581-0.284,0.928-0.284s0.521,0.06,0.521,0.18
				c0,0.058-0.137,0.214-0.407,0.468c-0.271,0.255-0.478,0.468-0.616,0.642c0.215,0.019,0.406,0.036,0.573,0.05
				s0.298,0.026,0.393,0.036c-0.359,0.509-0.811,1.03-1.354,1.563c-0.178-0.009-0.325-0.018-0.445-0.025
				c-0.12-0.007-0.241-0.015-0.364-0.022c-0.123-0.007-0.272-0.015-0.45-0.025c-0.341,0.418-0.626,0.791-0.856,1.12
				c-0.231,0.329-0.407,0.63-0.53,0.904c-0.123,0.273-0.185,0.533-0.185,0.778c0,0.332,0.173,0.497,0.521,0.497
				c0.24,0,0.555-0.097,0.942-0.292c0.388-0.195,0.907-0.494,1.557-0.897v0.482c-1.704,1.408-2.963,2.111-3.776,2.111
				c-0.284,0-0.514-0.084-0.688-0.252c-0.173-0.168-0.26-0.384-0.26-0.648c0-0.178,0.049-0.389,0.146-0.634
				c0.099-0.245,0.273-0.615,0.525-1.109c-0.089,0.058-0.172,0.114-0.251,0.169s-0.151,0.106-0.218,0.151
				c-0.066,0.046-0.138,0.094-0.213,0.144c-0.076,0.051-0.152,0.102-0.229,0.155v-0.497c0.663-0.422,1.464-1.165,2.405-2.226
				c-0.095-0.004-0.183-0.008-0.265-0.011c-0.082-0.003-0.181-0.003-0.293-0.003c-0.373,0-0.65,0.019-0.833,0.058
				c-0.076,0.014-0.147,0.03-0.214,0.047c-0.065,0.017-0.111,0.025-0.137,0.025c-0.024,0-0.038-0.014-0.038-0.043
				c0-0.159,0.129-0.396,0.389-0.713c0.208-0.269,0.404-0.468,0.592-0.598c0.186-0.129,0.413-0.217,0.682-0.263
				S172.971,375.223,173.457,375.223z"/>
			<path d="M182.063,378.962v0.454c-0.549,0.427-1.024,0.777-1.425,1.048c-0.401,0.271-0.751,0.477-1.052,0.616
				c-0.3,0.14-0.554,0.209-0.762,0.209c-0.492,0-0.738-0.221-0.738-0.663c0-0.355,0.153-0.768,0.459-1.236
				c0.307-0.468,0.746-1.02,1.321-1.653c-0.284,0.12-0.552,0.258-0.805,0.414c-0.252,0.156-0.478,0.32-0.672,0.49
				c-0.195,0.17-0.36,0.316-0.492,0.436c-0.41,0.351-0.805,0.71-1.185,1.077c-0.378,0.368-0.634,0.606-0.767,0.717
				c-0.133,0.111-0.259,0.166-0.379,0.166c-0.492,0-0.738-0.461-0.738-1.383c0-0.303,0.061-0.636,0.18-1.001
				c0.12-0.365,0.442-0.848,0.967-1.448c1.104-1.258,2.05-2.287,2.835-3.087c0.785-0.8,1.438-1.405,1.955-1.815
				c0.517-0.41,0.864-0.611,1.042-0.602c0.221,0.014,0.398,0.048,0.535,0.101c0.136,0.053,0.203,0.113,0.203,0.18
				c0,0.12-0.108,0.318-0.326,0.595c-0.219,0.276-0.593,0.707-1.122,1.293c-0.574,0.62-0.981,1.055-1.222,1.308
				c-0.239,0.252-0.598,0.61-1.073,1.073c-0.478,0.464-0.912,0.876-1.308,1.239c-0.395,0.363-0.844,0.755-1.349,1.178v0.865
				c0.846-0.716,1.578-1.302,2.196-1.758c0.618-0.457,1.143-0.801,1.571-1.034c0.43-0.233,0.745-0.35,0.947-0.35
				c0.189,0,0.366,0.085,0.53,0.256s0.247,0.311,0.247,0.421c0,0.048-0.032,0.108-0.096,0.18c-0.455,0.413-0.815,0.755-1.084,1.026
				s-0.475,0.514-0.62,0.728s-0.218,0.398-0.218,0.551c0,0.226,0.143,0.339,0.426,0.339
				C180.349,379.892,181.021,379.582,182.063,378.962z"/>
			<path d="M186.427,379.243l-1.686,1.088c-0.801,0.533-1.338,0.799-1.609,0.799c-0.245,0-0.505-0.215-0.775-0.645
				c-0.271-0.43-0.407-0.806-0.407-1.127c0-0.274,0.055-0.505,0.166-0.695c0.11-0.189,0.301-0.436,0.573-0.738
				c0.385-0.408,0.754-0.754,1.106-1.038c0.354-0.283,0.666-0.503,0.938-0.659c0.271-0.156,0.46-0.234,0.568-0.234
				c0.17,0,0.336,0.067,0.496,0.202c0.161,0.134,0.242,0.273,0.242,0.417c0,0.091-0.087,0.238-0.261,0.439
				c-0.173,0.202-0.448,0.458-0.823,0.768c-0.376,0.31-0.897,0.681-1.566,1.113l-0.181,0.396c-0.05,0.077-0.076,0.144-0.076,0.202
				c0,0.13,0.086,0.194,0.257,0.194c0.176,0,0.591-0.17,1.244-0.511c0.653-0.341,1.362-0.8,2.125-1.376
				c0.297-0.226,0.544-0.425,0.738-0.598c0.196-0.173,0.373-0.335,0.53-0.486c0.157-0.151,0.289-0.265,0.393-0.342
				c0.104-0.077,0.197-0.118,0.279-0.123c0.158-0.014,0.281,0.036,0.369,0.151c0.088,0.115,0.132,0.286,0.132,0.512
				c0,0.129-0.076,0.292-0.227,0.486c-0.151,0.194-0.437,0.526-0.853,0.994c-0.416,0.468-0.832,0.954-1.245,1.455
				c-0.413,0.502-0.834,1.067-1.264,1.697c0.019-0.015,0.213-0.159,0.582-0.432c0.37-0.274,0.759-0.56,1.169-0.857
				s0.748-0.537,1.013-0.717c0.266-0.18,0.597-0.39,0.994-0.63v0.482c-0.852,0.697-1.624,1.357-2.313,1.981
				c-0.691,0.624-1.226,1.124-1.601,1.499s-0.595,0.593-0.658,0.655c-0.17,0.168-0.323,0.326-0.459,0.472
				c-0.135,0.146-0.25,0.259-0.341,0.338c-0.091,0.08-0.166,0.119-0.222,0.119c-0.133,0-0.251-0.1-0.355-0.299
				c-0.104-0.199-0.155-0.375-0.155-0.529c0-0.139,0.033-0.262,0.104-0.367C183.824,382.521,184.843,381.169,186.427,379.243z"/>
			<path d="M194.664,379.567v-0.504c0.883-0.73,1.646-1.417,2.286-2.061s1.147-1.155,1.521-1.535c0.371-0.379,0.7-0.647,0.983-0.803
				c0.284-0.156,0.642-0.234,1.07-0.234c0.215,0,0.322,0.063,0.322,0.187c0,0.101-0.086,0.25-0.261,0.447
				c-0.173,0.197-0.396,0.399-0.667,0.605c-0.358,0.269-0.711,0.606-1.055,1.012c-0.344,0.406-0.734,0.923-1.169,1.552
				c0.341-0.202,0.734-0.44,1.179-0.717c0.445-0.276,0.809-0.492,1.089-0.648c0.281-0.156,0.56-0.28,0.833-0.371
				c0.274-0.091,0.551-0.137,0.828-0.137c0.177,0,0.292,0.024,0.347,0.072c0.054,0.048,0.08,0.142,0.08,0.281
				c0,0.365-0.116,0.722-0.351,1.07c-0.233,0.348-0.568,0.709-1.003,1.084c-0.436,0.375-0.972,0.783-1.609,1.225
				c0.222,0.063,0.448,0.094,0.683,0.094c0.731,0,1.714-0.425,2.943-1.275v0.519c-0.479,0.327-0.947,0.634-1.405,0.922
				s-0.89,0.519-1.292,0.691c-0.403,0.172-0.776,0.26-1.117,0.26c-0.126,0-0.26-0.011-0.402-0.033
				c-0.142-0.021-0.272-0.048-0.393-0.079c-0.12-0.031-0.275-0.076-0.464-0.133c-0.189-0.058-0.335-0.099-0.437-0.123
				c-0.202,0.039-0.315,0.058-0.341,0.058c-0.221,0-0.48-0.067-0.776-0.202c-0.208,0.308-0.437,0.705-0.687,1.192
				c-0.25,0.487-0.459,0.875-0.629,1.164s-0.397,0.564-0.683,0.828c-0.157,0.12-0.268,0.18-0.332,0.18
				c-0.271,0-0.406-0.183-0.406-0.547c0-0.317,0.083-0.647,0.25-0.991c0.167-0.343,0.373-0.669,0.615-0.976
				c0.243-0.308,0.51-0.618,0.801-0.933c0.29-0.314,0.496-0.548,0.614-0.702c0.997-1.307,1.773-2.418,2.329-3.336
				C196.507,378.016,195.408,378.981,194.664,379.567z M198.507,379.92c0.625-0.5,1.091-0.925,1.396-1.275s0.459-0.62,0.459-0.807
				c0-0.178-0.117-0.267-0.351-0.267c-0.315,0-0.76,0.198-1.33,0.594c-0.571,0.396-1.16,0.931-1.767,1.603
				c0.467-0.039,0.779-0.052,0.938-0.04C198.012,379.741,198.229,379.805,198.507,379.92z"/>
			<path d="M203.752,377.672c0.959-0.663,1.891-1.155,2.792-1.477c0.903-0.322,1.601-0.483,2.093-0.483
				c0.133,0,0.256,0.042,0.369,0.126s0.203,0.182,0.271,0.292c0.066,0.11,0.1,0.192,0.1,0.245c0,0.087-0.044,0.15-0.133,0.191
				c-0.088,0.041-0.243,0.09-0.464,0.148c0.044,0.077,0.101,0.175,0.17,0.295c0.069,0.12,0.123,0.217,0.161,0.292
				c0.038,0.075,0.057,0.141,0.057,0.198c0,0.115-0.152,0.331-0.459,0.645c-0.306,0.314-0.521,0.546-0.644,0.695
				c-0.123,0.149-0.186,0.331-0.186,0.547c0,0.355,0.216,0.533,0.645,0.533c0.44,0,1.133-0.314,2.073-0.944v0.439
				c-1.598,1.35-2.739,2.024-3.428,2.024c-0.246,0-0.421-0.062-0.524-0.184c-0.104-0.123-0.156-0.304-0.156-0.544
				c0-0.379,0.18-0.93,0.54-1.65c-0.921,0.778-1.606,1.332-2.054,1.661c-0.448,0.329-0.817,0.493-1.108,0.493
				c-0.139,0-0.312-0.091-0.521-0.273s-0.394-0.419-0.555-0.709c-0.161-0.291-0.242-0.592-0.242-0.904
				c0-0.226,0.028-0.415,0.085-0.565c0.058-0.151,0.167-0.306,0.331-0.465C203.129,378.139,203.392,377.932,203.752,377.672z
				 M208.287,376.88c-1.641,0.572-2.81,1.057-3.508,1.456c-0.697,0.398-1.046,0.809-1.046,1.232c0,0.154,0.035,0.28,0.104,0.378
				c0.069,0.099,0.164,0.148,0.284,0.148c0.069,0,0.192-0.034,0.369-0.101c0.663-0.298,1.269-0.686,1.818-1.164
				C206.857,378.351,207.517,377.701,208.287,376.88z"/>
			<path d="M210.474,379.164v-0.173c1.628-1.306,2.749-2.221,3.36-2.745c0.14-0.591,0.474-0.886,1.003-0.886
				c0.133,0,0.274,0.029,0.427,0.086l0.057,0.137c-0.025,0.058-0.038,0.139-0.038,0.245c0,0.091,0.046,0.261,0.137,0.508
				c0.093,0.248,0.163,0.455,0.213,0.624c0.051,0.168,0.076,0.357,0.076,0.569c0,0.317-0.095,0.621-0.284,0.912
				c-0.188,0.291-0.464,0.569-0.823,0.835c-0.36,0.266-0.824,0.539-1.393,0.818c0.228,0.029,0.407,0.043,0.54,0.043
				c0.259,0,0.538-0.049,0.838-0.147c0.301-0.098,0.606-0.23,0.918-0.396c0.313-0.166,0.678-0.38,1.094-0.645v0.482
				c-0.809,0.601-1.53,1.056-2.168,1.365c-0.639,0.31-1.188,0.465-1.647,0.465c-0.594,0-1.143-0.192-1.646-0.576
				c-0.298-0.23-0.481-0.452-0.555-0.663C210.51,379.81,210.474,379.524,210.474,379.164z M214.005,378.062l-0.17-1.052
				c-0.392,0.336-1.228,0.982-2.509,1.938c0.378,0.063,0.637,0.146,0.776,0.252c0.139,0.106,0.334,0.31,0.587,0.612
				c0.429-0.134,0.759-0.318,0.989-0.551c0.229-0.233,0.345-0.551,0.345-0.955c0-0.048-0.001-0.091-0.004-0.13
				C214.016,378.138,214.011,378.1,214.005,378.062z"/>
			<path d="M219.885,375.223h0.407c0.334-0.457,0.639-0.779,0.909-0.969c0.271-0.189,0.581-0.284,0.928-0.284
				c0.348,0,0.521,0.06,0.521,0.18c0,0.058-0.136,0.214-0.407,0.468c-0.271,0.255-0.477,0.468-0.616,0.642
				c0.215,0.019,0.406,0.036,0.573,0.05s0.298,0.026,0.393,0.036c-0.359,0.509-0.811,1.03-1.354,1.563
				c-0.177-0.009-0.325-0.018-0.445-0.025c-0.12-0.007-0.24-0.015-0.363-0.022c-0.123-0.007-0.273-0.015-0.45-0.025
				c-0.341,0.418-0.626,0.791-0.857,1.12c-0.23,0.329-0.407,0.63-0.53,0.904c-0.122,0.273-0.185,0.533-0.185,0.778
				c0,0.332,0.173,0.497,0.521,0.497c0.239,0,0.554-0.097,0.941-0.292c0.388-0.195,0.907-0.494,1.558-0.897v0.482
				c-1.704,1.408-2.964,2.111-3.777,2.111c-0.284,0-0.513-0.084-0.688-0.252c-0.173-0.168-0.26-0.384-0.26-0.648
				c0-0.178,0.049-0.389,0.147-0.634c0.098-0.245,0.272-0.615,0.524-1.109c-0.089,0.058-0.172,0.114-0.251,0.169
				s-0.15,0.106-0.218,0.151c-0.066,0.046-0.137,0.094-0.213,0.144c-0.076,0.051-0.152,0.102-0.229,0.155v-0.497
				c0.663-0.422,1.465-1.165,2.405-2.226c-0.095-0.004-0.183-0.008-0.265-0.011c-0.082-0.003-0.181-0.003-0.293-0.003
				c-0.373,0-0.65,0.019-0.833,0.058c-0.076,0.014-0.147,0.03-0.213,0.047c-0.066,0.017-0.112,0.025-0.138,0.025
				c-0.024,0-0.038-0.014-0.038-0.043c0-0.159,0.13-0.396,0.389-0.713c0.208-0.269,0.405-0.468,0.592-0.598
				c0.186-0.129,0.413-0.217,0.682-0.263C219.021,375.246,219.398,375.223,219.885,375.223z"/>
		</g>
	</g>
	<g>
		<path fill="#750809" d="M20.661,457.135c0,2.451-0.877,4.183-2.632,5.194c-1.309,0.746-3.185,1.118-5.624,1.118
			c-2.376,0-4.284-0.436-5.72-1.306c-1.836-1.1-2.753-2.829-2.753-5.19v-12.146h4.234v11.556c0,1.457,0.47,2.511,1.413,3.169
			c0.688,0.479,1.538,0.722,2.562,0.722c1.739,0,2.936-0.383,3.592-1.146c0.559-0.656,0.839-1.625,0.839-2.902v-11.396h4.089
			V457.135z"/>
		<path fill="#750809" d="M34.663,463.444h-3.327v-9.095c0-0.229-0.047-0.44-0.143-0.628c-0.097-0.187-0.23-0.368-0.407-0.547
			c-0.32-0.301-0.687-0.453-1.1-0.453H26.43v10.723h-3.328v-13.816h6.365c1.135,0,1.954,0.071,2.468,0.211
			c0.799,0.215,1.436,0.685,1.914,1.414c0.544,0.854,0.813,1.786,0.813,2.8L34.663,463.444L34.663,463.444z"/>
		<path fill="#750809" d="M40.408,448.081h-3.303V444.8h3.303V448.081z M40.408,463.444h-3.303v-13.816h3.303V463.444z"/>
		<path fill="#750809" d="M55.437,449.628l-5.362,13.816h-4.117l-5.099-13.816h3.949l3.303,9.656l3.424-9.656H55.437L55.437,449.628
			z"/>
		<path fill="#750809" d="M66.64,463.525h-5.842c-1.42,0-2.652-0.682-3.696-2.041c-1.044-1.361-1.569-2.932-1.569-4.707
			c0-1.939,0.572-3.613,1.712-5.027c1.142-1.414,2.414-2.119,3.818-2.119h5.553v2.854h-4.07c-0.51,0-0.943,0.05-1.305,0.146
			c-0.36,0.097-0.69,0.289-0.994,0.575c-0.56,0.534-0.839,1.252-0.839,2.159h7.18v2.88h-7.18c0,0.426,0.043,0.786,0.13,1.081
			c0.087,0.293,0.269,0.588,0.541,0.88c0.273,0.292,0.597,0.487,0.974,0.587c0.376,0.097,0.836,0.146,1.379,0.146h4.204v2.588
			L66.64,463.525L66.64,463.525z"/>
		<path fill="#750809" d="M75.998,452.617h-3.71v10.827h-3.303v-13.816h3.303v1.92c0.177-0.479,0.396-0.87,0.649-1.174
			c0.258-0.302,0.594-0.535,1.013-0.693c0.192-0.07,0.397-0.134,0.615-0.187s0.438-0.08,0.662-0.08c0.272,0,0.53,0.037,0.771,0.104
			V452.617z"/>
		<path fill="#750809" d="M89.281,459.231c0,1.175-0.339,2.178-1.017,3.014s-1.534,1.252-2.572,1.252h-8.209v-2.507h6.729
			c0.479,0,0.879-0.134,1.205-0.401c0.326-0.267,0.491-0.648,0.491-1.146c0-1.155-0.699-1.733-2.101-1.733h-3.438
			c-0.732,0-1.44-0.392-2.125-1.174c-0.684-0.783-1.024-1.629-1.024-2.532c0-1.28,0.255-2.312,0.768-3.095
			c0.591-0.89,1.46-1.333,2.61-1.333h7.896v2.613H81.46c-0.271,0-0.507,0.146-0.705,0.439c-0.198,0.292-0.299,0.628-0.299,1.001
			c0,0.41,0.131,0.761,0.396,1.053s0.578,0.441,0.943,0.441h3.71c1.165,0,2.085,0.389,2.767,1.162
			C88.942,457.057,89.281,458.042,89.281,459.231z"/>
		<path fill="#750809" d="M94.496,448.081h-3.303V444.8h3.303V448.081z M94.496,463.444h-3.303v-13.816h3.303V463.444z"/>
		<path fill="#750809" d="M104.312,452.512h-3.231v6.268c0,0.567,0.174,1.04,0.524,1.413c0.397,0.373,0.927,0.56,1.579,0.56h0.98
			v2.693h-3.088c-0.926,0-1.716-0.373-2.371-1.121c-0.382-0.444-0.631-0.934-0.742-1.467c-0.111-0.534-0.168-1.165-0.168-1.894
			v-6.452H95.69v-2.881h2.105v-4.828h3.277v4.828h3.231v2.881H104.312L104.312,452.512z"/>
		<path fill="#750809" d="M117.929,449.628l-0.025,14.403c0,0.604-0.111,1.152-0.335,1.641s-0.52,0.92-0.886,1.293
			c-0.561,0.534-1.135,0.897-1.726,1.094c-0.59,0.195-1.302,0.292-2.131,0.292h-6.509v-2.881h6.795c0.304,0,0.593-0.114,0.863-0.351
			c0.365-0.323,0.553-0.702,0.553-1.134v-0.541h-3.84c-0.736,0-1.36-0.094-1.873-0.279c-0.513-0.187-1.007-0.547-1.488-1.078
			c-0.849-0.923-1.271-2.066-1.271-3.434v-9.022h3.495l-0.025,8.833c0,0.354,0.019,0.622,0.06,0.799
			c0.04,0.178,0.152,0.373,0.338,0.584c0.188,0.211,0.398,0.36,0.642,0.438c0.242,0.08,0.54,0.121,0.895,0.121h3.069v-10.775h3.399
			V449.628z"/>
		<path fill="#750809" d="M143.657,456.497c0,2.405-0.687,4.251-2.061,5.53c-1.262,1.178-2.977,1.765-5.146,1.765
			c-2.172,0-3.853-0.534-5.052-1.603c-1.39-1.23-2.082-3.146-2.082-5.745c0-2.172,0.749-3.885,2.25-5.129
			c1.342-1.122,2.991-1.686,4.955-1.686c2.152,0,3.881,0.601,5.183,1.806C143.008,452.636,143.657,454.322,143.657,456.497z
			 M139.948,456.47c0-1.125-0.313-2.065-0.944-2.823c-0.631-0.76-1.487-1.139-2.571-1.139c-0.991,0-1.81,0.39-2.455,1.165
			c-0.646,0.777-0.97,1.753-0.97,2.931c0,1.354,0.326,2.437,0.981,3.237s1.501,1.205,2.538,1.205c1.181,0,2.061-0.419,2.632-1.258
			C139.687,459.021,139.948,457.914,139.948,456.47z"/>
		<path fill="#750809" d="M154.404,447.655h-1.484c-0.366,0-0.701,0.021-1.007,0.064c-0.305,0.043-0.51,0.164-0.621,0.357
			c-0.111,0.191-0.187,0.379-0.228,0.553c-0.04,0.177-0.06,0.396-0.06,0.658V450h3.354v2.774h-3.354v10.669h-3.494v-10.669h-2.394
			V450h2.394v-1.653c0-0.926,0.27-1.724,0.813-2.4c0.336-0.427,0.699-0.725,1.091-0.896c0.393-0.168,0.873-0.255,1.448-0.255h3.541
			L154.404,447.655L154.404,447.655z"/>
		<path fill="#750809" d="M169.939,463.444h-4.479V444.8h4.479V463.444z"/>
		<path fill="#750809" d="M183.916,463.444h-3.327v-9.095c0-0.229-0.047-0.44-0.144-0.628c-0.096-0.187-0.229-0.368-0.406-0.547
			c-0.319-0.301-0.687-0.453-1.101-0.453h-3.256v10.723h-3.327v-13.816h6.366c1.134,0,1.953,0.071,2.464,0.211
			c0.798,0.215,1.436,0.685,1.913,1.414c0.544,0.854,0.813,1.786,0.813,2.8v9.393L183.916,463.444L183.916,463.444z"/>
		<path fill="#750809" d="M195.189,447.655h-1.485c-0.367,0-0.702,0.021-1.007,0.064c-0.305,0.043-0.51,0.164-0.621,0.357
			c-0.112,0.191-0.187,0.379-0.227,0.553c-0.041,0.177-0.061,0.396-0.061,0.658V450h3.351v2.774h-3.351v10.669h-3.495v-10.669
			h-2.396V450h2.396v-1.653c0-0.926,0.271-1.724,0.813-2.4c0.336-0.427,0.699-0.725,1.088-0.896
			c0.392-0.168,0.873-0.255,1.448-0.255h3.541v2.858L195.189,447.655L195.189,447.655z"/>
		<path fill="#750809" d="M210.698,456.497c0,2.405-0.687,4.251-2.06,5.53c-1.263,1.178-2.978,1.765-5.146,1.765
			c-2.169,0-3.853-0.534-5.052-1.603c-1.391-1.23-2.082-3.146-2.082-5.745c0-2.172,0.749-3.885,2.249-5.129
			c1.343-1.122,2.992-1.686,4.956-1.686c2.152,0,3.88,0.601,5.183,1.806C210.049,452.636,210.698,454.322,210.698,456.497z
			 M206.989,456.47c0-1.125-0.314-2.065-0.944-2.823c-0.631-0.76-1.487-1.139-2.572-1.139c-0.991,0-1.809,0.39-2.454,1.165
			c-0.646,0.777-0.971,1.753-0.971,2.931c0,1.354,0.326,2.437,0.982,3.237c0.655,0.801,1.5,1.205,2.538,1.205
			c1.181,0,2.06-0.419,2.632-1.258C206.724,459.021,206.989,457.914,206.989,456.47z"/>
		<path fill="#750809" d="M219.624,452.617h-3.71v10.827h-3.303v-13.816h3.303v1.92c0.178-0.479,0.396-0.87,0.649-1.174
			c0.258-0.302,0.594-0.535,1.013-0.693c0.193-0.07,0.398-0.134,0.615-0.187c0.218-0.053,0.438-0.08,0.662-0.08
			c0.272,0,0.53,0.037,0.771,0.104V452.617z"/>
		<path fill="#750809" d="M239.179,463.444h-3.231v-8.646c0-0.335-0.03-0.603-0.096-0.799c-0.065-0.195-0.193-0.403-0.383-0.624
			c-0.192-0.221-0.383-0.382-0.574-0.479c-0.192-0.098-0.417-0.146-0.671-0.146h-2.371v10.694h-3.277V452.67h-3.831v10.774h-3.374
			v-13.816h13.285c0.829,0,1.485,0.084,1.964,0.252s0.947,0.528,1.413,1.078c0.367,0.444,0.649,0.879,0.849,1.305
			c0.198,0.427,0.299,0.89,0.299,1.384L239.179,463.444L239.179,463.444z"/>
		<path fill="#750809" d="M253.732,463.444h-8.951c-1.007,0-1.864-0.376-2.572-1.132c-0.712-0.755-1.064-1.705-1.064-2.857
			c0-1.205,0.322-2.203,0.966-2.992c0.646-0.789,1.451-1.184,2.424-1.184h5.775v-0.745c0-0.23-0.037-0.434-0.108-0.601
			c-0.071-0.168-0.187-0.369-0.349-0.6c-0.225-0.283-0.453-0.467-0.692-0.547c-0.239-0.081-0.575-0.121-1.004-0.121h-6.183v-3.042
			h5.313h1.028c1.165,0,2.034,0.111,2.608,0.332c0.575,0.221,1.068,0.557,1.485,0.998c0.528,0.587,0.876,1.224,1.053,1.917
			c0.179,0.691,0.266,1.578,0.266,2.662v7.91L253.732,463.444L253.732,463.444z M250.308,460.617v-2.693h-4.213
			c-0.397,0-0.739,0.127-1.017,0.382c-0.28,0.255-0.42,0.595-0.42,1.017c0,0.37,0.137,0.678,0.407,0.923
			c0.271,0.249,0.581,0.37,0.936,0.37h4.307V460.617z"/>
		<path fill="#750809" d="M263.496,452.512h-3.229v6.268c0,0.567,0.174,1.04,0.527,1.413c0.397,0.373,0.927,0.56,1.578,0.56h0.981
			v2.693h-3.088c-0.927,0-1.716-0.373-2.371-1.121c-0.382-0.444-0.631-0.934-0.742-1.467c-0.112-0.534-0.168-1.165-0.168-1.894
			v-6.452h-2.106v-2.881h2.106v-4.828h3.278v4.828h3.229v2.881H263.496L263.496,452.512z"/>
		<path fill="#750809" d="M268.545,448.081h-3.303V444.8h3.303V448.081z M268.545,463.444h-3.303v-13.816h3.303V463.444z"/>
		<path fill="#750809" d="M284.844,456.497c0,2.405-0.688,4.251-2.058,5.53c-1.261,1.178-2.977,1.765-5.145,1.765
			c-2.169,0-3.854-0.534-5.053-1.603c-1.389-1.23-2.082-3.146-2.082-5.745c0-2.172,0.749-3.885,2.249-5.129
			c1.341-1.122,2.992-1.686,4.956-1.686c2.153,0,3.882,0.601,5.184,1.806C284.195,452.636,284.844,454.322,284.844,456.497z
			 M281.135,456.47c0-1.125-0.317-2.065-0.945-2.823c-0.63-0.76-1.487-1.139-2.572-1.139c-0.991,0-1.808,0.39-2.454,1.165
			c-0.646,0.777-0.97,1.753-0.97,2.931c0,1.354,0.326,2.437,0.981,3.237s1.5,1.205,2.538,1.205c1.182,0,2.061-0.419,2.633-1.258
			C280.873,459.021,281.135,457.914,281.135,456.47z"/>
		<path fill="#750809" d="M298.319,463.444h-3.327v-9.095c0-0.229-0.05-0.44-0.143-0.628c-0.098-0.187-0.233-0.368-0.407-0.547
			c-0.32-0.301-0.688-0.453-1.104-0.453h-3.256v10.723h-3.327v-13.816h6.366c1.131,0,1.954,0.071,2.464,0.211
			c0.798,0.215,1.437,0.685,1.913,1.414c0.541,0.854,0.814,1.786,0.814,2.8v9.393L298.319,463.444L298.319,463.444z"/>
		<path fill="#750809" d="M325.15,447.976h-6.248v15.521h-3.877v-15.521h-6.151V444.8h16.273v3.176H325.15L325.15,447.976z"/>
		<path fill="#750809" d="M336.996,463.525h-5.841c-1.42,0-2.652-0.682-3.697-2.041c-1.047-1.361-1.567-2.932-1.567-4.707
			c0-1.939,0.571-3.613,1.712-5.027c1.14-1.414,2.414-2.119,3.818-2.119h5.552v2.854h-4.067c-0.513,0-0.946,0.05-1.305,0.146
			c-0.357,0.097-0.689,0.289-0.994,0.575c-0.56,0.534-0.839,1.252-0.839,2.159h7.18v2.88h-7.18c0,0.426,0.044,0.786,0.131,1.081
			c0.09,0.293,0.268,0.588,0.54,0.88c0.271,0.292,0.597,0.487,0.973,0.587c0.376,0.097,0.836,0.146,1.381,0.146h4.202v2.588
			L336.996,463.525L336.996,463.525z"/>
		<path fill="#750809" d="M350.304,463.444h-5.217c-1.931,0-3.452-0.628-4.559-1.88c-1.108-1.256-1.666-2.901-1.666-4.949
			c0-1.974,0.525-3.61,1.579-4.905c1.131-1.389,2.688-2.082,4.666-2.082h5.195v3.2h-4.714c-0.879,0-1.628,0.392-2.249,1.175
			c-0.621,0.782-0.934,1.681-0.934,2.693c0,1.03,0.296,1.92,0.887,2.669c0.591,0.745,1.322,1.121,2.202,1.121h4.811v2.958H350.304z"
			/>
		<path fill="#750809" d="M363.995,454.351v9.095h-3.374v-8.39c0-0.252-0.009-0.547-0.023-0.886
			c-0.017-0.338-0.145-0.643-0.383-0.91c-0.239-0.267-0.481-0.44-0.728-0.521c-0.245-0.081-0.553-0.121-0.917-0.121h-2.833v10.827
			h-3.374V444.8h3.374v4.828h4.116c0.681,0,1.23,0.065,1.641,0.199c0.413,0.134,0.847,0.426,1.3,0.879
			c0.449,0.454,0.765,0.963,0.94,1.535C363.908,452.813,363.995,453.515,363.995,454.351z"/>
		<path fill="#750809" d="M377.995,463.444h-3.326v-9.095c0-0.229-0.051-0.44-0.145-0.628c-0.096-0.187-0.229-0.368-0.406-0.547
			c-0.319-0.301-0.688-0.453-1.101-0.453h-3.256v10.723h-3.327v-13.816h6.366c1.134,0,1.954,0.071,2.464,0.211
			c0.798,0.215,1.435,0.685,1.917,1.414c0.54,0.854,0.813,1.786,0.813,2.8L377.995,463.444L377.995,463.444z"/>
		<path fill="#750809" d="M394.298,456.497c0,2.405-0.688,4.251-2.058,5.53c-1.262,1.178-2.977,1.765-5.145,1.765
			c-2.172,0-3.856-0.534-5.049-1.603c-1.39-1.23-2.082-3.146-2.082-5.745c0-2.172,0.749-3.885,2.249-5.129
			c1.343-1.122,2.991-1.686,4.956-1.686c2.152,0,3.881,0.601,5.183,1.806C393.645,452.636,394.298,454.322,394.298,456.497z
			 M390.585,456.47c0-1.125-0.313-2.065-0.944-2.823c-0.631-0.76-1.488-1.139-2.572-1.139c-0.988,0-1.809,0.39-2.454,1.165
			c-0.646,0.777-0.97,1.753-0.97,2.931c0,1.354,0.329,2.437,0.981,3.237c0.655,0.801,1.497,1.205,2.538,1.205
			c1.182,0,2.058-0.419,2.632-1.258C390.323,459.021,390.585,457.914,390.585,456.47z"/>
		<path fill="#750809" d="M399.586,463.444h-3.374V444.8h3.374V463.444z"/>
		<path fill="#750809" d="M415.813,456.497c0,2.405-0.688,4.251-2.057,5.53c-1.263,1.178-2.978,1.765-5.146,1.765
			c-2.172,0-3.853-0.534-5.049-1.603c-1.389-1.23-2.081-3.146-2.081-5.745c0-2.172,0.748-3.885,2.249-5.129
			c1.339-1.122,2.992-1.686,4.956-1.686c2.152,0,3.88,0.601,5.182,1.806C415.163,452.636,415.813,454.322,415.813,456.497z
			 M412.103,456.47c0-1.125-0.316-2.065-0.944-2.823c-0.631-0.76-1.487-1.139-2.571-1.139c-0.988,0-1.81,0.39-2.451,1.165
			c-0.646,0.777-0.97,1.753-0.97,2.931c0,1.354,0.325,2.437,0.98,3.237c0.656,0.801,1.498,1.205,2.539,1.205
			c1.181,0,2.057-0.419,2.631-1.258C411.84,459.021,412.103,457.914,412.103,456.47z"/>
		<path fill="#750809" d="M430.365,462.991c0,0.94-0.07,1.705-0.215,2.293c-0.143,0.587-0.453,1.168-0.932,1.746
			c-0.479,0.577-0.991,0.969-1.532,1.174c-0.543,0.205-1.221,0.308-2.034,0.308h-7.134v-2.933h6.023c0.208,0,0.36,0,0.457,0
			c0.271,0,0.487-0.022,0.646-0.065c0.159-0.044,0.336-0.146,0.528-0.308c0.128-0.09,0.271-0.249,0.432-0.479
			c0.159-0.232,0.239-0.426,0.239-0.587v-0.64h-4.343c-1.521,0-2.79-0.729-3.815-2.188c-0.96-1.369-1.441-2.971-1.441-4.801
			c0-1.867,0.521-3.479,1.568-4.841c1.044-1.36,2.364-2.041,3.962-2.041h7.587v13.36L430.365,462.991L430.365,462.991z
			 M426.87,460.483l-0.024-7.708H423.9c-0.876,0-1.557,0.385-2.035,1.158s-0.718,1.756-0.718,2.948c0,0.907,0.218,1.69,0.646,2.35
			c0.56,0.836,1.372,1.255,2.441,1.255h2.635V460.483z"/>
		<path fill="#750809" d="M444.63,449.628l-0.024,14.403c0,0.604-0.112,1.152-0.336,1.641s-0.519,0.92-0.886,1.293
			c-0.56,0.534-1.135,0.897-1.725,1.094c-0.591,0.195-1.302,0.292-2.129,0.292h-6.512v-2.881h6.795c0.305,0,0.59-0.114,0.863-0.351
			c0.367-0.323,0.554-0.702,0.554-1.134v-0.541h-3.841c-0.736,0-1.36-0.094-1.873-0.279c-0.513-0.187-1.007-0.547-1.488-1.078
			c-0.849-0.923-1.271-2.066-1.271-3.434v-9.022h3.495l-0.025,8.833c0,0.354,0.02,0.622,0.06,0.799
			c0.04,0.178,0.152,0.373,0.34,0.584c0.183,0.211,0.396,0.36,0.64,0.438c0.242,0.08,0.541,0.121,0.895,0.121h3.07v-10.775h3.398
			V449.628L444.63,449.628z"/>
		<path fill="#750809" d="M474.382,455.817l-2.706,0.026c-0.192,2.259-0.982,4.1-2.367,5.521c-1.579,1.618-3.735,2.426-6.463,2.426
			c-2.347,0-4.045-0.516-5.1-1.541c-0.895-0.869-1.339-2.1-1.339-3.697c0-0.938,0.182-1.745,0.537-2.42
			c0.357-0.674,0.914-1.275,1.666-1.808c-0.83-0.498-1.433-1.145-1.809-1.942s-0.563-1.755-0.563-2.874
			c0-1.275,0.386-2.38,1.159-3.312c0.773-0.934,1.729-1.396,2.861-1.396h7.373v3.415h-5.195c-0.524,0-0.997,0.188-1.41,0.557
			c-0.416,0.369-0.621,0.819-0.621,1.352c0,0.688,0.198,1.28,0.596,1.777c0.398,0.493,0.896,0.741,1.485,0.741h1.149v3.2h-1.269
			c-0.523,0-0.976,0.188-1.342,0.561c-0.367,0.373-0.55,0.879-0.55,1.52c-0.063,0.835,0.255,1.466,0.957,1.893
			c0.509,0.302,1.268,0.516,2.272,0.641c1.004,0.09,1.982-0.342,2.935-1.293c0.947-0.95,1.423-2.066,1.423-3.351l-2.514,0.028
			v-3.306h8.829v3.282H474.382z"/>
		<path fill="#750809" d="M503.915,457.644c0,1.633-0.483,3.009-1.46,4.126c-0.973,1.119-2.213,1.679-3.71,1.679h-11.85v-3.333
			h9.765c0.656,0,1.206-0.171,1.653-0.51c0.51-0.396,0.764-0.93,0.764-1.609c0-1.594-1.003-2.39-3.017-2.39h-4.931
			c-1.42,0-2.665-0.487-3.734-1.464c-1.068-0.976-1.604-2.219-1.604-3.726c0-1.668,0.521-3.021,1.565-4.058s2.42-1.558,4.129-1.558
			h11.321v3.2h-9.979c-0.446,0-0.896,0.208-1.351,0.625c-0.457,0.416-0.684,0.907-0.684,1.47c0,0.638,0.217,1.171,0.657,1.604
			c0.438,0.432,0.971,0.648,1.592,0.648h5.434c1.69,0,3.021,0.484,3.986,1.451C503.431,454.767,503.915,456.047,503.915,457.644z"/>
		<path fill="#750809" d="M516.769,463.444h-5.217c-1.934,0-3.452-0.628-4.562-1.88c-1.108-1.256-1.663-2.901-1.663-4.949
			c0-1.974,0.525-3.61,1.579-4.905c1.131-1.389,2.69-2.082,4.666-2.082h5.195v3.2h-4.717c-0.879,0-1.628,0.392-2.249,1.175
			c-0.621,0.782-0.937,1.681-0.937,2.693c0,1.03,0.295,1.92,0.887,2.669c0.59,0.745,1.322,1.121,2.202,1.121h4.81v2.958H516.769z"/>
		<path fill="#750809" d="M522.129,448.081h-3.304V444.8h3.304V448.081z M522.129,463.444h-3.304v-13.816h3.304V463.444z"/>
		<path fill="#750809" d="M535.196,463.525h-5.841c-1.42,0-2.653-0.682-3.697-2.041c-1.044-1.361-1.568-2.932-1.568-4.707
			c0-1.939,0.571-3.613,1.712-5.027s2.414-2.119,3.817-2.119h5.553v2.854h-4.069c-0.51,0-0.944,0.05-1.305,0.146
			c-0.36,0.097-0.69,0.289-0.994,0.575c-0.561,0.534-0.839,1.252-0.839,2.159h7.18v2.88h-7.18c0,0.426,0.043,0.786,0.133,1.081
			c0.087,0.293,0.268,0.588,0.541,0.88c0.272,0.292,0.597,0.487,0.973,0.587c0.376,0.097,0.836,0.146,1.379,0.146h4.204v2.588
			L535.196,463.525L535.196,463.525z"/>
		<path fill="#750809" d="M549.102,463.444h-3.324v-9.095c0-0.229-0.05-0.44-0.143-0.628c-0.098-0.187-0.233-0.368-0.407-0.547
			c-0.32-0.301-0.687-0.453-1.103-0.453h-3.258v10.723h-3.327v-13.816h6.366c1.131,0,1.954,0.071,2.464,0.211
			c0.798,0.215,1.437,0.685,1.914,1.414c0.54,0.854,0.813,1.786,0.813,2.8v9.393L549.102,463.444L549.102,463.444z"/>
		<path fill="#750809" d="M562.506,463.444h-5.218c-1.929,0-3.45-0.628-4.558-1.88c-1.109-1.256-1.662-2.901-1.662-4.949
			c0-1.974,0.525-3.61,1.578-4.905c1.131-1.389,2.688-2.082,4.667-2.082h5.194v3.2h-4.713c-0.88,0-1.628,0.392-2.249,1.175
			c-0.622,0.782-0.937,1.681-0.937,2.693c0,1.03,0.295,1.92,0.886,2.669c0.591,0.745,1.323,1.121,2.202,1.121h4.811v2.958H562.506z"
			/>
		<path fill="#750809" d="M575.191,463.525h-5.841c-1.42,0-2.653-0.682-3.697-2.041c-1.044-1.361-1.568-2.932-1.568-4.707
			c0-1.939,0.571-3.613,1.712-5.027s2.413-2.119,3.817-2.119h5.553v2.854h-4.069c-0.511,0-0.947,0.05-1.306,0.146
			c-0.356,0.097-0.689,0.289-0.993,0.575c-0.561,0.534-0.837,1.252-0.837,2.159h7.181v2.88h-7.181c0,0.426,0.044,0.786,0.135,1.081
			c0.087,0.293,0.267,0.588,0.54,0.88c0.272,0.292,0.597,0.487,0.973,0.587c0.376,0.097,0.836,0.146,1.383,0.146h4.203v2.588
			L575.191,463.525L575.191,463.525z"/>
		<path fill="#750809" d="M589.073,459.231c0,1.175-0.339,2.178-1.016,3.014c-0.678,0.836-1.535,1.252-2.573,1.252h-8.208v-2.507
			h6.729c0.476,0,0.879-0.134,1.205-0.401c0.325-0.267,0.49-0.648,0.49-1.146c0-1.155-0.702-1.733-2.101-1.733h-3.436
			c-0.733,0-1.442-0.392-2.127-1.174c-0.683-0.783-1.027-1.629-1.027-2.532c0-1.28,0.258-2.312,0.768-3.095
			c0.591-0.89,1.46-1.333,2.61-1.333h7.896v2.613h-7.036c-0.271,0-0.508,0.146-0.705,0.439c-0.199,0.292-0.3,0.628-0.3,1.001
			c0,0.41,0.132,0.761,0.396,1.053c0.265,0.292,0.578,0.441,0.948,0.441h3.709c1.165,0,2.088,0.389,2.766,1.162
			C588.731,457.057,589.073,458.042,589.073,459.231z"/>
	</g>
	<g>
		<path fill="#006838" d="M397.662,431.748l-2.041,2.38h-1.675l6.658-7.528l1.867-0.003l1.755,7.521l-1.618,0.003l-0.51-2.376
			L397.662,431.748z M401.966,431.005l-0.491-2.175c-0.074-0.392-0.171-0.938-0.228-1.382h-0.036
			c-0.346,0.446-0.668,0.916-1.051,1.373l-1.927,2.189L401.966,431.005z"/>
		<path fill="#006838" d="M405.936,434.118l1.246-3.831c0.211-0.604,0.326-1.127,0.44-1.575h1.407l-0.229,1.061h0.038
			c0.818-0.759,2.057-1.185,3.407-1.188c1.104,0,2.34,0.366,2.34,1.504c0,0.236-0.077,0.581-0.175,0.87l-1.033,3.146h-1.582
			l1.017-3.116c0.077-0.211,0.134-0.47,0.134-0.692c0-0.547-0.36-0.947-1.445-0.947c-1.125,0-2.725,0.795-3.145,2.135l-0.842,2.622
			L405.936,434.118z"/>
		<path fill="#006838" d="M419.566,434.105l1.78-5.402h1.581l-1.78,5.402H419.566z M421.635,427.196
			c0-0.357,0.479-0.625,1.047-0.625c0.572,0,0.933,0.246,0.933,0.581c-0.02,0.37-0.457,0.625-1.065,0.625
			C421.995,427.774,421.633,427.528,421.635,427.196z"/>
		<path fill="#006838" d="M423.926,434.103l1.245-3.826c0.212-0.604,0.326-1.128,0.44-1.575h1.408l-0.23,1.06h0.037
			c0.82-0.762,2.058-1.185,3.408-1.188c1.104,0,2.34,0.367,2.34,1.504c0,0.232-0.078,0.581-0.174,0.87l-1.035,3.146l-1.581,0.003
			l1.017-3.115c0.077-0.212,0.134-0.47,0.134-0.693c0-0.547-0.36-0.947-1.444-0.947c-1.125,0-2.725,0.796-3.145,2.135l-0.843,2.622
			L423.926,434.103z"/>
		<path fill="#006838" d="M434.088,434.094l1.779-5.402h1.582l-1.779,5.402H434.088z M436.156,427.184
			c0-0.356,0.479-0.624,1.047-0.624c0.572,0,0.934,0.245,0.934,0.581c-0.02,0.369-0.457,0.624-1.069,0.624
			C436.517,427.762,436.156,427.52,436.156,427.184z"/>
		<path fill="#006838" d="M442.592,427.233l-0.479,1.45l2.209-0.003l-0.248,0.728l-2.209,0.003l-0.86,2.622
			c-0.097,0.302-0.171,0.581-0.175,0.87c0,0.322,0.266,0.513,0.876,0.513c0.269,0,0.534-0.013,0.743-0.034l-0.078,0.725
			c-0.285,0.067-0.761,0.103-1.218,0.103c-1.407,0-1.94-0.5-1.938-1.047c0-0.313,0.059-0.624,0.191-1.016l0.92-2.734h-1.333
			l0.248-0.728h1.314l0.4-1.218L442.592,427.233z"/>
		<path fill="#006838" d="M444.403,434.084l1.78-5.402h1.581l-1.78,5.402H444.403z M446.472,427.175
			c0-0.356,0.479-0.625,1.047-0.625c0.571,0,0.932,0.245,0.932,0.581c-0.019,0.37-0.456,0.625-1.067,0.625
			C446.832,427.756,446.472,427.51,446.472,427.175z"/>
		<path fill="#006838" d="M454.872,434.075c0-0.323,0.098-0.836,0.213-1.396h-0.037c-1.011,1.115-2.27,1.521-3.583,1.521
			c-1.618,0.003-2.645-0.755-2.645-1.783c0.003-1.877,2.367-3.865,6.385-3.868c0.876,0,1.847,0.087,2.474,0.211l-0.938,2.813
			c-0.308,0.938-0.439,1.897-0.402,2.501L454.872,434.075z M455.91,429.365c-0.227-0.034-0.57-0.078-1.103-0.078
			c-2.38,0.003-4.325,1.467-4.347,2.961c0,0.603,0.359,1.193,1.577,1.193c1.314,0,2.877-1.008,3.338-2.448L455.91,429.365z"/>
		<path fill="#006838" d="M462.843,427.215l-0.479,1.451l2.209-0.003l-0.249,0.727l-2.209,0.003l-0.859,2.622
			c-0.098,0.303-0.171,0.581-0.175,0.87c0,0.323,0.265,0.514,0.876,0.514c0.269,0,0.534-0.014,0.742-0.034l-0.077,0.724
			c-0.285,0.068-0.762,0.104-1.218,0.104c-1.407,0-1.941-0.5-1.938-1.048c0-0.313,0.059-0.624,0.191-1.016l0.919-2.734h-1.332
			l0.248-0.727h1.314l0.399-1.218L462.843,427.215z"/>
		<path fill="#006838" d="M464.654,434.068l1.78-5.402h1.581l-1.78,5.402H464.654z M466.723,427.156
			c0-0.357,0.478-0.625,1.047-0.625c0.571,0,0.932,0.245,0.932,0.581c-0.019,0.365-0.457,0.624-1.067,0.624
			C467.083,427.736,466.723,427.491,466.723,427.156z"/>
		<path fill="#006838" d="M471.078,428.659l0.792,3.079c0.135,0.614,0.246,1.024,0.283,1.33h0.057
			c0.188-0.292,0.438-0.646,0.973-1.263l2.824-3.149h1.732l-5.133,5.406l-1.56,0.003l-1.589-5.399L471.078,428.659z"/>
		<path fill="#006838" d="M484.164,433.739c-0.687,0.235-1.808,0.426-3.048,0.426c-2.436,0.003-3.501-0.97-3.498-2.162
			c0.003-1.628,2.063-3.474,5.033-3.477c1.752-0.004,2.703,0.61,2.7,1.382c-0.004,1.417-2.726,1.799-6.134,1.769
			c-0.077,0.232-0.021,0.736,0.188,1.024c0.36,0.479,1.104,0.725,2.055,0.725c1.085,0,1.904-0.202,2.477-0.383L484.164,433.739z
			 M482.423,429.253c-1.504,0-2.629,0.86-3.012,1.712c2.477,0.01,4.418-0.184,4.418-1.02
			C483.829,429.498,483.26,429.253,482.423,429.253z"/>
		<path fill="#006838" d="M498.448,430.77c-0.004,1.662-2.022,3.396-5.107,3.398c-2.303,0.003-3.596-1-3.596-2.218
			c0.003-1.774,2.119-3.428,5.108-3.432C497.347,428.517,498.448,429.619,498.448,430.77z M491.383,431.912
			c-0.003,0.883,0.813,1.517,2.169,1.517c1.862-0.003,3.276-1.407,3.279-2.669c0-0.624-0.49-1.507-2.148-1.504
			C492.699,429.256,491.364,430.673,491.383,431.912z"/>
		<path fill="#006838" d="M499.771,434.037l1.513-4.679h-1.218l0.229-0.728h1.236l0.097-0.28c0.212-0.758,0.668-1.449,1.507-1.886
			c0.571-0.313,1.393-0.48,2.189-0.48c0.628,0,1.047,0.064,1.256,0.143l-0.345,0.736c-0.249-0.068-0.572-0.1-0.933-0.1
			c-1.255,0-1.867,0.715-2.135,1.609l-0.077,0.258l2.057-0.003l-0.249,0.728l-2.038,0.003l-1.531,4.679H499.771L499.771,434.037z"/>
		<g>
			<g>
				<path fill="#5A712D" d="M516.052,426.649l-1.168,4.864c-0.165,0.688-0.243,1.172-0.243,1.454c0,0.396,0.105,0.693,0.317,0.896
					c0.211,0.202,0.691,0.311,1.44,0.33l-0.137,0.475h-7.021l0.118-0.475c0.594-0.011,1.016-0.081,1.262-0.216
					c0.245-0.131,0.45-0.348,0.614-0.648c0.118-0.195,0.299-0.802,0.541-1.814l2.663-11.082c0.186-0.735,0.276-1.268,0.276-1.582
					c0-0.315-0.118-0.584-0.35-0.805c-0.231-0.217-0.658-0.335-1.272-0.354l0.117-0.477h5.695c1.563,0,2.688,0.239,3.374,0.721
					c1.061,0.756,1.591,1.887,1.591,3.396c0,1.461-0.527,2.744-1.585,3.856c-1.057,1.111-2.481,1.664-4.269,1.664
					C517.474,426.854,516.822,426.786,516.052,426.649z M516.262,425.658c0.46,0.067,0.842,0.103,1.144,0.103
					c0.977,0,1.743-0.541,2.302-1.622c0.561-1.081,0.84-2.209,0.84-3.387c0-0.798-0.181-1.416-0.54-1.857
					c-0.36-0.44-0.857-0.661-1.494-0.661c-0.134,0-0.302,0.01-0.501,0.024L516.262,425.658z"/>
				<path fill="#5A712D" d="M529.615,425.248h5.261l1.164-4.878c0.155-0.671,0.233-1.181,0.233-1.531
					c0-0.342-0.097-0.605-0.286-0.786c-0.191-0.181-0.648-0.302-1.379-0.359l0.118-0.477h7.147l-0.114,0.477
					c-0.698,0-1.229,0.18-1.591,0.54c-0.36,0.359-0.668,1.071-0.923,2.138l-2.676,11.17c-0.177,0.729-0.264,1.255-0.264,1.568
					c0,0.316,0.097,0.557,0.286,0.721c0.244,0.224,0.694,0.342,1.348,0.36l-0.108,0.476h-7.009l0.158-0.476
					c0.681,0,1.181-0.161,1.501-0.481c0.323-0.323,0.618-1.044,0.885-2.168l1.24-5.198h-5.238l-1.229,5.198
					c-0.177,0.711-0.266,1.239-0.266,1.584c0,0.308,0.109,0.56,0.323,0.752c0.218,0.192,0.645,0.298,1.277,0.317l-0.105,0.475
					h-6.916l0.118-0.475c0.677,0,1.174-0.162,1.488-0.482c0.315-0.322,0.604-1.044,0.876-2.168l2.672-11.17
					c0.155-0.643,0.233-1.149,0.233-1.519c0-0.353-0.095-0.618-0.28-0.8c-0.187-0.181-0.634-0.302-1.342-0.359l0.117-0.477h7.03
					l-0.158,0.477c-0.648,0-1.144,0.171-1.476,0.507c-0.332,0.338-0.637,1.063-0.913,2.168L529.615,425.248z"/>
				<path fill="#5A712D" d="M546.217,426.649l-1.169,4.864c-0.161,0.688-0.242,1.172-0.242,1.454c0,0.396,0.104,0.693,0.316,0.896
					c0.211,0.202,0.692,0.311,1.441,0.33l-0.14,0.475h-7.021l0.114-0.475c0.594-0.011,1.017-0.081,1.262-0.216
					c0.249-0.131,0.454-0.348,0.615-0.648c0.121-0.195,0.302-0.802,0.541-1.814l2.662-11.082c0.184-0.735,0.272-1.268,0.272-1.582
					c0-0.315-0.114-0.584-0.348-0.805c-0.233-0.217-0.659-0.335-1.274-0.354l0.118-0.477h5.695c1.563,0,2.688,0.239,3.371,0.721
					c1.063,0.756,1.591,1.887,1.591,3.396c0,1.461-0.528,2.744-1.585,3.856c-1.057,1.111-2.479,1.664-4.269,1.664
					C547.642,426.854,546.987,426.786,546.217,426.649z M546.427,425.658c0.46,0.067,0.842,0.103,1.146,0.103
					c0.977,0,1.743-0.541,2.303-1.622s0.836-2.209,0.836-3.387c0-0.798-0.181-1.416-0.54-1.857c-0.36-0.44-0.861-0.661-1.495-0.661
					c-0.133,0-0.301,0.01-0.5,0.024L546.427,425.658z"/>
			</g>
			<g>
				<path fill="#5A712D" d="M567.97,424.661c0,0.064-0.013,0.148-0.037,0.248c-0.009,0.019-0.031,0.1-0.071,0.235
					c-0.363-0.322-0.826-0.486-1.386-0.486c-0.547,0-1.591,0.318-3.138,0.96c-1.612,0.668-2.552,1.208-2.824,1.615
					c-0.109,0.168-0.333,0.611-0.675,1.336c-0.181,0.382-0.326,0.658-0.433,0.836c0.188,0.056,0.326,0.084,0.42,0.084
					c0.228,0,0.563-0.061,1.011-0.174c0.449-0.118,0.786-0.176,1.01-0.176c0.366,0,0.597,0.011,0.688,0.028
					c0.273,0.056,0.477,0.181,0.605,0.376c-0.396,0.104-1.1,0.283-2.112,0.544c-0.698,0.188-1.389,0.45-2.065,0.792
					c-0.357,0.188-0.652,0.628-0.886,1.323c-0.1,0.333-0.299,0.923-0.594,1.769c-0.218,0.584-0.528,0.876-0.936,0.876v-0.235
					c0-0.352,0.212-0.988,0.631-1.907c0.218-0.473,0.608-1.317,1.178-2.535c0.426-0.927,0.64-1.526,0.64-1.796
					c0-0.131-0.043-0.252-0.127-0.364c-0.241-0.304-0.366-0.479-0.373-0.516l0.021-0.225l0.255-0.318
					c0.762-0.142,1.665-0.46,2.706-0.961l2.663-1.279c0.889-0.429,1.836-0.641,2.846-0.641
					C567.526,424.074,567.852,424.27,567.97,424.661z"/>
				<path fill="#5A712D" d="M569.076,434.728c-0.171,0.447-0.373,0.669-0.608,0.669c-0.265,0-0.557-0.233-0.873-0.696
					c-0.248-0.352-0.45-0.733-0.605-1.141c-0.651,0.372-1.097,0.611-1.33,0.725c-0.573,0.271-1.04,0.402-1.389,0.402
					c-0.615,0-0.919-0.368-0.919-1.114c0-1.196,0.543-2.266,1.634-3.203c0.357-0.309,0.839-0.634,1.448-0.988
					c0.724-0.419,1.236-0.627,1.541-0.627c0.208,0,0.406,0.137,0.593,0.403c0.188,0.271,0.28,0.535,0.28,0.793
					c0,0.509-0.168,1.181-0.507,2.01c-0.339,0.833-0.508,1.313-0.508,1.441c0,0.446,0.061,0.752,0.179,0.92
					C568.098,434.463,568.455,434.597,569.076,434.728z M568.656,430.021c0-0.337-0.242-0.5-0.724-0.5
					c-0.708,0-1.292,0.188-1.762,0.57c-0.436,0.354-0.886,0.826-1.354,1.42c-0.59,0.752-0.885,1.347-0.885,1.783
					c0,0.261,0.093,0.46,0.278,0.6c0.164,0.121,0.36,0.185,0.595,0.185c0.674,0,1.255-0.286,1.735-0.853
					c0.118-0.14,0.447-0.671,0.994-1.6c0.332-0.575,0.655-0.864,0.971-0.864C568.608,430.499,568.656,430.253,568.656,430.021z
					 M569.042,435.007v-0.04h0.024v-0.044h-0.024v-0.084h0.048v0.028h-0.022v0.027h0.022v0.108h-0.048V435.007z"/>
				<path fill="#5A712D" d="M578.32,430.272c0,0.475-0.146,0.976-0.432,1.503c-0.149,0.271-0.37,0.678-0.665,1.225
					c-0.357,0.689-0.538,1.128-0.538,1.323c0,0.064,0.019,0.221,0.06,0.473c0.017,0.104,0.024,0.202,0.024,0.295
					c0,0.205-0.108,0.357-0.329,0.46c-0.336-0.103-0.5-0.429-0.5-0.976c0-0.474,0.148-1.007,0.456-1.604
					c0.662-1.289,0.991-2.114,0.991-2.476c-0.476,0.167-1.098,0.537-1.867,1.112c-0.373,0.287-0.935,0.714-1.681,1.278
					c-0.88,0.649-1.43,0.977-1.656,0.977l-0.174-0.043c0.016-0.202,0.349-0.682,1.004-1.437c0.289-0.332,0.432-0.687,0.432-1.057
					c0-0.141-0.023-0.282-0.071-0.433c-0.01-0.019-0.063-0.157-0.164-0.416c-0.481,0.289-1.037,0.792-1.668,1.517l-1.518,1.756
					c-0.497,0.574-0.9,0.863-1.215,0.863v-0.251c0-0.252,0.397-0.911,1.203-1.979c0.442-0.584,0.708-0.98,0.792-1.196
					c0.187-0.443,0.392-0.681,0.618-0.708c0.154-0.019,0.614-0.235,1.376-0.655c0.342-0.187,0.581-0.279,0.725-0.279
					c0.326,0,0.571,0.345,0.736,1.031c0.029,0.131,0.087,0.413,0.164,0.852c0.311-0.214,0.876-0.59,1.689-1.128
					c0.771-0.5,1.354-0.752,1.752-0.752C578.167,429.548,578.32,429.79,578.32,430.272z"/>
				<path fill="#5A712D" d="M580.37,430.604c0,0.149-0.218,0.887-0.652,2.213c-0.057,0.168-0.137,0.412-0.245,0.738
					c-0.093,0.249-0.214,0.407-0.363,0.474c-0.084,0.037-0.261,0.056-0.524,0.056c0-0.065-0.01-0.158-0.027-0.279
					c-0.02-0.117-0.028-0.215-0.028-0.275c0-0.205,0.065-0.434,0.199-0.685c0.18-0.345,0.279-0.554,0.304-0.628
					c0.063-0.231,0.185-0.64,0.364-1.224c0.13-0.41,0.342-0.752,0.631-1.032C580.253,430.244,580.37,430.458,580.37,430.604z
					 M581.47,426.776c0,0.336-0.188,0.504-0.563,0.504c-0.342,0-0.513-0.168-0.513-0.504c0-0.164,0.047-0.397,0.134-0.695
					c0.09-0.299,0.141-0.521,0.146-0.668c0.078,0.056,0.228,0.319,0.443,0.795c0.017,0.028,0.087,0.112,0.209,0.252
					C581.421,426.56,581.47,426.665,581.47,426.776z"/>
				<path fill="#5A712D" d="M586.193,425.621c0,0.056-0.262,0.655-0.783,1.799l-1.517,3.327c-0.63,1.393-0.977,2.2-1.037,2.424
					l-0.233,0.893c-0.13,0.372-0.305,0.556-0.513,0.556c-0.118,0-0.248-0.03-0.396-0.096l-0.127-0.252
					c0.087-0.481,0.379-1.213,0.876-2.188l1.479-2.911c0.575-1.124,0.954-2.064,1.134-2.827c0.031-0.157,0.098-0.438,0.196-0.836
					c0.093-0.278,0.245-0.486,0.456-0.627c0.115,0.02,0.224,0.108,0.32,0.271C586.143,425.316,586.193,425.472,586.193,425.621z"/>
				<path fill="#5A712D" d="M591.455,429.101c0,0.354-0.231,0.864-0.698,1.532c-0.248,0.346-0.685,0.966-1.309,1.867
					c-0.466,0.688-0.698,1.255-0.698,1.699c0,0.121,0.016,0.224,0.047,0.308c-0.595,0.192-1.146,0.761-1.669,1.699l-1.749,3.176
					c-0.108-0.027-0.316-0.159-0.618-0.389c0.124-0.305,0.404-0.789,0.842-1.448c0.227-0.313,0.557-0.792,0.991-1.432
					c0.367-0.55,0.547-0.91,0.547-1.088c0-0.271-0.18-0.403-0.537-0.403h-0.233c-0.356-0.047-0.617-0.41-0.782-1.085
					c-0.108-0.456-0.161-0.977-0.161-1.561c0-0.648,0.059-1.409,0.174-2.282c0.476,0,0.712,0.456,0.712,1.362
					c0,0.168-0.013,0.417-0.041,0.74c-0.027,0.326-0.04,0.571-0.04,0.739c0,1.134,0.413,1.699,1.236,1.699
					c0.258,0,0.631-0.419,1.122-1.255c0.14-0.242,0.584-1.081,1.326-2.521c0.527-1.021,0.926-1.675,1.189-1.961
					c0.053,0.047,0.127,0.143,0.214,0.292C591.412,428.93,591.455,429.035,591.455,429.101z"/>
			</g>
		</g>
	</g>
</g>
</svg>
